<svg width="52" height="45" viewBox="0 0 52 45" fill="none" xmlns="http://www.w3.org/2000/svg">
<path d="M46.5309 11.0043C46.8146 10.9827 47.0984 11.0436 47.3393 11.1775C47.5803 11.3115 47.7652 11.5114 47.8658 11.7467C47.9663 11.9819 47.9771 12.2397 47.8964 12.4808C47.8158 12.722 47.6481 12.9333 47.4189 13.0826C46.3595 13.8445 44.4691 14.3879 43.2955 15.0826C43.0128 15.1582 42.7095 15.147 42.435 15.0509C42.1605 14.9547 41.9309 14.7793 41.7837 14.5532C41.6366 14.327 41.5804 14.0635 41.6245 13.8056C41.6687 13.5477 41.8105 13.3107 42.0267 13.1331C43.2574 12.5729 44.4247 11.8783 45.6681 11.3517C45.9398 11.2074 46.2293 11.0908 46.5309 11.0043Z" fill="#666666"/>
<path d="M4.68867 11C4.8831 11.0013 5.07512 11.0375 5.2532 11.1064C6.67619 11.6869 8.04998 12.3572 9.36394 13.112C9.6401 13.267 9.83776 13.5102 9.91561 13.7909C9.99347 14.0716 9.94556 14.3681 9.7818 14.6183C9.61803 14.8684 9.35112 15.0531 9.03684 15.1336C8.72256 15.2141 8.38515 15.1843 8.09519 15.0503C6.94697 14.35 5.08197 13.8234 4.0416 13.0728C3.80854 12.9453 3.62855 12.7546 3.52849 12.5292C3.42843 12.3038 3.41366 12.0559 3.48652 11.8225C3.55937 11.5892 3.71586 11.3828 3.93256 11.2346C4.14927 11.0863 4.41457 11.004 4.68867 11Z" fill="#666666"/>
<path d="M13.3518 3.96174C13.5742 3.90859 13.8084 3.90812 14.0311 3.96023C14.2538 4.01235 14.4572 4.11524 14.6206 4.25867C15.4807 5.33306 16.2605 6.45586 16.955 7.61993C17.1335 7.84667 17.2109 8.12358 17.1723 8.3976C17.1337 8.67162 16.9818 8.92346 16.7459 9.1047C16.51 9.28594 16.2066 9.38392 15.894 9.37975C15.5813 9.37557 15.2815 9.26959 15.0519 9.08213C14.1491 8.01853 13.341 6.89474 12.6349 5.72087C12.2289 5.02621 12.4129 4.14661 13.3518 3.96174Z" fill="#666666"/>
<path d="M36.0386 3.95707C37.339 3.71618 38.0241 4.74134 37.4469 5.76093C36.8263 6.82018 36.1203 7.83876 35.3343 8.80857C35.1854 9.07898 34.9211 9.28601 34.5993 9.38424C34.2775 9.48247 33.9247 9.46376 33.6185 9.33227C33.3122 9.20077 33.0777 8.96734 32.9664 8.68315C32.8552 8.39897 32.8764 8.0874 33.0253 7.81699C33.8119 6.7806 34.4843 5.3464 35.347 4.39405C35.5138 4.18249 35.758 4.02815 36.0386 3.95707Z" fill="#666666"/>
<path d="M26.2236 5.71425C26.0528 5.84182 25.8483 5.92911 25.629 5.9681C25.4097 6.00709 25.1829 5.99645 24.9695 5.93719C24.7562 5.87792 24.5633 5.772 24.4087 5.62918C24.2542 5.48637 24.143 5.31132 24.0857 5.1204C23.9714 3.789 23.9714 2.45181 24.0857 1.12042C24.0857 0.823266 24.2194 0.538368 24.4574 0.328248C24.6953 0.118129 25.0179 0 25.3544 0C25.6909 0 26.0137 0.118129 26.2516 0.328248C26.4896 0.538368 26.6232 0.823266 26.6232 1.12042C26.7342 2.40517 26.7342 3.6956 26.6232 4.98034C26.5846 5.25704 26.4443 5.51493 26.2236 5.71425Z" fill="#666666"/>
<path d="M0.313425 25.4138C0.168967 25.263 0.0701237 25.0824 0.0259733 24.8888C-0.0181766 24.6951 -0.00613689 24.4948 0.0609756 24.3064C0.128088 24.118 0.248036 23.9476 0.409759 23.8111C0.571481 23.6747 0.769697 23.5765 0.9859 23.5258C2.49355 23.425 4.00777 23.425 5.51543 23.5258C5.85192 23.5258 6.17454 23.644 6.41248 23.8541C6.65041 24.0642 6.78418 24.3491 6.78418 24.6463C6.78418 24.9434 6.65041 25.2285 6.41248 25.4386C6.17454 25.6487 5.85192 25.7667 5.51543 25.7667C4.0606 25.8648 2.59933 25.8648 1.14449 25.7667C0.831165 25.7327 0.53914 25.6087 0.313425 25.4138Z" fill="#666666"/>
<path d="M44.7202 25.4138C44.5757 25.263 44.4769 25.0824 44.4327 24.8888C44.3886 24.6951 44.4006 24.4948 44.4677 24.3064C44.5348 24.118 44.6548 23.9476 44.8165 23.8111C44.9782 23.6747 45.1764 23.5765 45.3926 23.5258C46.9003 23.425 48.4145 23.425 49.9222 23.5258C50.2587 23.5258 50.5813 23.644 50.8192 23.8541C51.0572 24.0642 51.1909 24.3491 51.1909 24.6463C51.1909 24.9434 51.0572 25.2285 50.8192 25.4386C50.5813 25.6487 50.2587 25.7667 49.9222 25.7667C48.4673 25.8648 47.0061 25.8648 45.5512 25.7667C45.2379 25.7327 44.9459 25.6087 44.7202 25.4138Z" fill="#666666"/>
<path d="M25.9639 11C29.2924 11 32.4909 12.2904 34.8984 14.5967L35.1289 14.8232C37.5607 17.2713 38.9277 20.5917 38.9277 24.0566V24.0605L38.9961 43H13V24.0566L13.0039 23.7324C13.0838 20.4933 14.3577 17.4004 16.5752 15.0547L16.8008 14.8232C19.2327 12.3752 22.5281 11 25.9639 11Z" fill="#C6DFFC" stroke="#666666" stroke-width="2"/>
<rect x="7" y="35" width="37" height="9" fill="white" stroke="#666666" stroke-width="2"/>
</svg>
