<svg width="105" height="108" viewBox="0 0 105 108" fill="none" xmlns="http://www.w3.org/2000/svg">
<path d="M102.03 57.84C100.32 54.43 97.7101 51.76 94.6401 49.97C96.8601 47.52 98.4701 44.46 99.1701 40.97C101.19 30.87 94.5301 20.78 84.4501 18.65C80.72 17.86 77 18.23 73.69 19.52C73.16 16.26 71.7701 13.09 69.48 10.37C62.84 2.49001 50.8 1.41 42.86 7.96C39.92 10.39 37.89 13.52 36.83 16.92C33.95 15.31 30.61 14.41 27.05 14.51C16.75 14.79 8.40005 23.52 8.57005 33.83C8.63005 37.64 9.82004 41.18 11.81 44.13C8.75004 45.38 5.97005 47.43 3.82005 50.27C-2.38995 58.49 -0.759968 70.47 7.40003 76.76C10.42 79.09 13.93 80.37 17.48 80.65C16.55 83.82 16.42 87.27 17.3 90.72C19.86 100.7 30.24 106.9 40.24 104.44C43.94 103.53 47.13 101.59 49.56 98.99C51.46 101.7 54.08 103.95 57.33 105.41C66.73 109.63 78.05 105.38 82.36 96.03C83.96 92.57 84.42 88.86 83.91 85.34C87.21 85.54 90.6 84.9 93.77 83.27C102.91 78.55 106.65 67.05 102.03 57.84Z" fill="#FFC957"/>
<path d="M37.52 49C38.6246 49 39.52 48.1046 39.52 47C39.52 45.8954 38.6246 45 37.52 45C36.4154 45 35.52 45.8954 35.52 47C35.52 48.1046 36.4154 49 37.52 49Z" fill="white"/>
<path d="M66.52 49C67.6246 49 68.52 48.1046 68.52 47C68.52 45.8954 67.6246 45 66.52 45C65.4154 45 64.52 45.8954 64.52 47C64.52 48.1046 65.4154 49 66.52 49Z" fill="white"/>
<path d="M66.02 60H37.02C36.19 60 35.52 59.33 35.52 58.5C35.52 57.67 36.19 57 37.02 57H66.02C66.85 57 67.52 57.67 67.52 58.5C67.52 59.33 66.85 60 66.02 60Z" fill="white"/>
<path d="M30.75 4C31.8546 4 32.75 3.10457 32.75 2C32.75 0.89543 31.8546 0 30.75 0C29.6454 0 28.75 0.89543 28.75 2C28.75 3.10457 29.6454 4 30.75 4Z" fill="#FFC957"/>
<path d="M86.25 15C87.6307 15 88.75 13.8807 88.75 12.5C88.75 11.1193 87.6307 10 86.25 10C84.8693 10 83.75 11.1193 83.75 12.5C83.75 13.8807 84.8693 15 86.25 15Z" fill="#FFC957"/>
<path d="M78.88 10C79.5704 10 80.13 9.44036 80.13 8.75C80.13 8.05964 79.5704 7.5 78.88 7.5C78.1896 7.5 77.63 8.05964 77.63 8.75C77.63 9.44036 78.1896 10 78.88 10Z" fill="#FFC957"/>
</svg>
