<svg width="105" height="108" viewBox="0 0 105 108" fill="none" xmlns="http://www.w3.org/2000/svg">
<path d="M102.03 57.84C100.32 54.43 97.7101 51.76 94.6401 49.97C96.8601 47.52 98.4701 44.46 99.1701 40.97C101.19 30.87 94.5301 20.78 84.4501 18.65C80.72 17.86 77 18.23 73.69 19.52C73.16 16.26 71.7701 13.09 69.48 10.37C62.84 2.49001 50.8 1.41 42.86 7.96C39.92 10.39 37.89 13.52 36.83 16.92C33.95 15.31 30.61 14.41 27.05 14.51C16.75 14.79 8.40005 23.52 8.57005 33.83C8.63005 37.64 9.82004 41.18 11.81 44.13C8.75004 45.38 5.97005 47.43 3.82005 50.27C-2.38995 58.49 -0.759968 70.47 7.40003 76.76C10.42 79.09 13.93 80.37 17.48 80.65C16.55 83.82 16.42 87.27 17.3 90.72C19.86 100.7 30.24 106.9 40.24 104.44C43.94 103.53 47.13 101.59 49.56 98.99C51.46 101.7 54.08 103.95 57.33 105.41C66.73 109.63 78.05 105.38 82.36 96.03C83.96 92.57 84.42 88.86 83.91 85.34C87.21 85.54 90.6 84.9 93.77 83.27C102.91 78.55 106.65 67.05 102.03 57.84Z" fill="#DE4F4F"/>
<path d="M29.75 4C30.8546 4 31.75 3.10457 31.75 2C31.75 0.89543 30.8546 0 29.75 0C28.6454 0 27.75 0.89543 27.75 2C27.75 3.10457 28.6454 4 29.75 4Z" fill="#DE4F4F"/>
<path d="M85.25 15C86.6307 15 87.75 13.8807 87.75 12.5C87.75 11.1193 86.6307 10 85.25 10C83.8693 10 82.75 11.1193 82.75 12.5C82.75 13.8807 83.8693 15 85.25 15Z" fill="#DE4F4F"/>
<path d="M77.88 10C78.5704 10 79.13 9.44036 79.13 8.75C79.13 8.05964 78.5704 7.5 77.88 7.5C77.1897 7.5 76.63 8.05964 76.63 8.75C76.63 9.44036 77.1897 10 77.88 10Z" fill="#DE4F4F"/>
<path d="M54.38 44.57L65.01 41.03C65.01 41.03 65.6 46.94 60.87 48.12C56.14 49.3 54.38 44.57 54.38 44.57Z" fill="white"/>
<path d="M49.66 44.57L39.03 41.03C39.03 41.03 38.44 46.94 43.17 48.12C47.9 49.3 49.66 44.57 49.66 44.57Z" fill="white"/>
<path d="M51.75 71C35.75 71 35.75 59.86 35.75 54.5C35.75 53.67 36.42 53 37.25 53H66.25C67.08 53 67.75 53.67 67.75 54.5C67.75 59.86 67.75 71 51.75 71ZM38.77 56C38.96 62.27 40.63 68 51.75 68C62.87 68 64.54 62.27 64.73 56H38.77Z" fill="white"/>
<path d="M45.75 70.3C44.92 70.3 44.25 69.63 44.25 68.8V54.5C44.25 53.67 44.92 53 45.75 53C46.58 53 47.25 53.67 47.25 54.5V68.8C47.25 69.63 46.58 70.3 45.75 70.3Z" fill="white"/>
<path d="M57.75 70.3C56.92 70.3 56.25 69.63 56.25 68.8V54.5C56.25 53.67 56.92 53 57.75 53C58.58 53 59.25 53.67 59.25 54.5V68.8C59.25 69.63 58.58 70.3 57.75 70.3Z" fill="white"/>
<path d="M51.75 71C50.92 71 50.25 70.33 50.25 69.5V54.5C50.25 53.67 50.92 53 51.75 53C52.58 53 53.25 53.67 53.25 54.5V69.5C53.25 70.33 52.58 71 51.75 71Z" fill="white"/>
</svg>
