<svg width="109" height="113" viewBox="0 0 109 113" fill="none" xmlns="http://www.w3.org/2000/svg">
<path d="M67.03 112.27C64.17 112.27 61.27 111.68 58.5 110.44C55.76 109.21 53.32 107.41 51.34 105.16C48.86 107.29 45.91 108.8 42.7001 109.59C31.57 112.33 20.19 105.52 17.34 94.4201C16.59 91.51 16.48 88.48 17.01 85.54C13.8 84.93 10.78 83.57 8.16004 81.55C-0.91996 74.55 -2.69995 61.42 4.20005 52.27C6.01005 49.87 8.31004 47.89 10.94 46.47C9.42004 43.58 8.60005 40.37 8.54004 37.06C8.35005 25.6 17.51 16.02 28.97 15.71C31.97 15.63 34.96 16.2 37.71 17.36C39.02 14.37 41.02 11.72 43.57 9.62003C52.41 2.32003 65.62 3.52003 73 12.28C74.94 14.58 76.35 17.26 77.16 20.14C80.32 19.3 83.63 19.21 86.86 19.89C98.08 22.26 105.38 33.32 103.13 44.55C102.54 47.5 101.32 50.28 99.58 52.7C102.21 54.65 104.34 57.18 105.82 60.13C110.97 70.38 106.86 82.98 96.68 88.23C94.01 89.61 91.07 90.39 88.09 90.53C88.21 93.8 87.55 97.04 86.1701 100.04C82.6301 107.73 74.98 112.27 67.03 112.27ZM51.77 99.03L53.18 101.05C54.94 103.56 57.34 105.54 60.13 106.79C68.59 110.59 78.64 106.82 82.53 98.3901C83.91 95.3901 84.3901 92.09 83.9201 88.83L83.56 86.3901L86.02 86.54C89.07 86.73 92.12 86.09 94.84 84.69C103.08 80.44 106.4 70.24 102.24 61.94C100.76 58.99 98.47 56.55 95.63 54.9L93.5 53.66L95.15 51.83C97.2 49.56 98.6001 46.78 99.2001 43.78C101.02 34.69 95.11 25.73 86.03 23.82C82.8 23.14 79.47 23.4 76.4 24.6L74.1 25.49L73.7001 23.06C73.2101 20.04 71.9 17.21 69.93 14.87C63.95 7.78003 53.27 6.81004 46.11 12.72C43.56 14.82 41.7 17.59 40.71 20.73L39.97 23.08L37.82 21.88C35.15 20.38 32.15 19.64 29.07 19.72C19.8 19.97 12.38 27.72 12.54 37C12.59 40.3 13.6 43.49 15.44 46.21L16.82 48.25L14.54 49.18C11.71 50.33 9.24003 52.23 7.40003 54.68C1.81003 62.08 3.25004 72.72 10.6 78.38C13.22 80.4 16.33 81.6 19.61 81.86L22.07 82.05L21.37 84.41C20.51 87.34 20.45 90.4601 21.21 93.4201C23.51 102.4 32.72 107.92 41.74 105.7C44.95 104.91 47.83 103.23 50.08 100.82L51.77 99.03Z" fill="#DE4F4F"/>
<path d="M31.75 7.21002C32.8546 7.21002 33.75 6.31459 33.75 5.21002C33.75 4.10545 32.8546 3.21002 31.75 3.21002C30.6454 3.21002 29.75 4.10545 29.75 5.21002C29.75 6.31459 30.6454 7.21002 31.75 7.21002Z" fill="#DE4F4F"/>
<path d="M89.75 15.71C91.1307 15.71 92.25 14.5907 92.25 13.21C92.25 11.8293 91.1307 10.71 89.75 10.71C88.3693 10.71 87.25 11.8293 87.25 13.21C87.25 14.5907 88.3693 15.71 89.75 15.71Z" fill="#DE4F4F"/>
<path d="M82.38 3.46002C83.0704 3.46002 83.63 2.90038 83.63 2.21002C83.63 1.51967 83.0704 0.960022 82.38 0.960022C81.6897 0.960022 81.13 1.51967 81.13 2.21002C81.13 2.90038 81.6897 3.46002 82.38 3.46002Z" fill="#DE4F4F"/>
<path d="M56.38 47.78L67.01 44.24C67.01 44.24 67.6 50.15 62.87 51.33C58.14 52.51 56.38 47.78 56.38 47.78Z" fill="#DE4F4F"/>
<path d="M51.66 47.78L41.03 44.24C41.03 44.24 40.44 50.15 45.17 51.33C49.9 52.51 51.66 47.78 51.66 47.78Z" fill="#DE4F4F"/>
<path d="M53.75 71.21C40.42 71.21 40.42 61.92 40.42 57.46C40.42 56.77 40.98 56.21 41.67 56.21H65.84C66.53 56.21 67.09 56.77 67.09 57.46C67.09 61.93 67.09 71.21 53.75 71.21ZM42.94 58.71C43.1 63.94 44.49 68.71 53.76 68.71C63.03 68.71 64.42 63.94 64.58 58.71H42.94Z" fill="#DE4F4F"/>
<path d="M48.75 70.63C48.06 70.63 47.5 70.07 47.5 69.38V57.46C47.5 56.77 48.06 56.21 48.75 56.21C49.44 56.21 50 56.77 50 57.46V69.38C50 70.07 49.44 70.63 48.75 70.63Z" fill="#DE4F4F"/>
<path d="M58.75 70.63C58.06 70.63 57.5 70.07 57.5 69.38V57.46C57.5 56.77 58.06 56.21 58.75 56.21C59.44 56.21 60 56.77 60 57.46V69.38C60 70.07 59.44 70.63 58.75 70.63Z" fill="#DE4F4F"/>
<path d="M53.75 71.21C53.06 71.21 52.5 70.65 52.5 69.96V57.46C52.5 56.77 53.06 56.21 53.75 56.21C54.44 56.21 55 56.77 55 57.46V69.96C55 70.65 54.44 71.21 53.75 71.21Z" fill="#DE4F4F"/>
</svg>
