<svg width="109" height="109" viewBox="0 0 109 109" fill="none" xmlns="http://www.w3.org/2000/svg">
<path d="M67.03 108.27C64.17 108.27 61.27 107.68 58.5 106.44C55.76 105.21 53.32 103.41 51.34 101.16C48.86 103.29 45.91 104.8 42.7 105.59C31.56 108.33 20.19 101.52 17.34 90.42C16.59 87.51 16.48 84.48 17.01 81.54C13.8 80.93 10.78 79.57 8.16001 77.55C-0.919991 70.55 -2.68999 57.42 4.21001 48.27C6.02001 45.87 8.32 43.89 10.95 42.47C9.43 39.58 8.61001 36.37 8.55001 33.06C8.36001 21.6 17.52 12.02 28.98 11.71C31.98 11.63 34.97 12.2 37.72 13.36C39.03 10.37 41.03 7.71997 43.58 5.61997C52.42 -1.68003 65.62 -0.480026 73.01 8.27997C74.95 10.58 76.36 13.26 77.17 16.14C80.33 15.3 83.64 15.21 86.87 15.89C98.09 18.26 105.39 29.32 103.14 40.55C102.55 43.5 101.33 46.28 99.59 48.7C102.22 50.65 104.35 53.18 105.83 56.13C110.98 66.38 106.87 78.98 96.69 84.23C94.02 85.61 91.09 86.39 88.1 86.53C88.22 89.8 87.56 93.05 86.18 96.04C82.63 103.73 74.98 108.27 67.03 108.27ZM51.77 95.03L53.18 97.05C54.94 99.56 57.34 101.54 60.13 102.79C68.59 106.59 78.64 102.82 82.53 94.39C83.91 91.39 84.39 88.09 83.92 84.83L83.56 82.39L86.02 82.54C89.07 82.73 92.12 82.09 94.84 80.69C103.09 76.44 106.4 66.24 102.24 57.94C100.76 54.99 98.47 52.55 95.63 50.9L93.5 49.66L95.15 47.83C97.2 45.56 98.6 42.78 99.2 39.78C101.02 30.69 95.11 21.73 86.03 19.82C82.8 19.14 79.47 19.41 76.4 20.6L74.1 21.49L73.7 19.06C73.21 16.04 71.9 13.21 69.93 10.87C63.95 3.77997 53.27 2.80998 46.11 8.71998C43.56 10.82 41.7 13.59 40.71 16.73L39.97 19.08L37.82 17.88C35.15 16.38 32.14 15.64 29.07 15.72C19.8 15.97 12.38 23.72 12.54 33C12.6 36.3 13.6 39.49 15.44 42.22L16.82 44.26L14.54 45.19C11.71 46.34 9.24 48.24 7.4 50.69C1.81 58.09 3.25001 68.73 10.6 74.39C13.22 76.41 16.33 77.61 19.61 77.87L22.07 78.06L21.37 80.42C20.51 83.35 20.45 86.47 21.21 89.43C23.51 98.41 32.72 103.92 41.74 101.71C44.95 100.92 47.83 99.24 50.08 96.83L51.77 95.03Z" fill="#00DE86"/>
<path d="M39.52 48.21C40.6246 48.21 41.52 47.3145 41.52 46.21C41.52 45.1054 40.6246 44.21 39.52 44.21C38.4154 44.21 37.52 45.1054 37.52 46.21C37.52 47.3145 38.4154 48.21 39.52 48.21Z" fill="#00DE86"/>
<path d="M68.52 48.21C69.6246 48.21 70.52 47.3145 70.52 46.21C70.52 45.1054 69.6246 44.21 68.52 44.21C67.4154 44.21 66.52 45.1054 66.52 46.21C66.52 47.3145 67.4154 48.21 68.52 48.21Z" fill="#00DE86"/>
<path d="M54.02 63.2099C41.2 63.2099 37.82 56.1399 37.68 55.8299C37.34 55.0799 37.67 54.1899 38.42 53.8399C39.17 53.4999 40.05 53.8199 40.4 54.5699C40.53 54.8299 43.29 60.2099 54.02 60.2099C64.62 60.2099 66.54 54.9699 66.62 54.7399C66.89 53.9599 67.73 53.5399 68.51 53.7899C69.29 54.0399 69.72 54.8699 69.48 55.6499C69.38 55.9699 66.98 63.2099 54.02 63.2099Z" fill="#00DE86"/>
</svg>
