<svg width="282" height="58" viewBox="0 0 282 58" fill="none" xmlns="http://www.w3.org/2000/svg">
<path d="M85.34 33.45V29.98H75.93V27.4H97.76V29.99H88.32V33.46H96.01V41.75H93.06V36.05H77.4V33.46H85.34V33.45ZM95.96 18.42V25.49H93.01V21.02H77.62V18.43H95.96V18.42Z" fill="#575756"/>
<path d="M114.51 30.7501H101.69V23.4901H111.29V21.1201H101.69V18.6101H114.24V25.8901H104.61V28.2901H114.51V30.7501ZM103.02 32.0101H105.91V33.9701H118.73V32.0101H121.62V41.2301H103.01V32.0101H103.02ZM118.74 36.3701H105.92V38.7701H118.74V36.3701ZM118.68 17.9301H121.63V31.1901H118.68V17.9301Z" fill="#575756"/>
<path d="M131.48 19.7001V17.3H134.67V19.7001H140.26V22.18H137.45C138.29 23.09 138.71 24.12 138.71 25.26C138.71 25.93 138.56 26.57 138.26 27.17C137.96 27.7701 137.55 28.3 137.05 28.75C136.36 29.37 135.52 29.81 134.54 30.06V31.3701H140.73V33.8801H125.31V31.3701H131.58V30.0301C130.67 29.8101 129.85 29.38 129.12 28.75C128.61 28.3 128.21 27.7701 127.91 27.17C127.61 26.57 127.46 25.93 127.46 25.26C127.46 24.15 127.88 23.12 128.72 22.18H125.8V19.7001H131.48ZM127.01 41.28V35.39H129.96V38.8H145.95V41.28H127.01ZM135.82 25.1901C135.82 24.4401 135.55 23.8101 135.01 23.2901C134.47 22.7701 133.83 22.51 133.09 22.51C132.34 22.51 131.7 22.7701 131.17 23.2901C130.63 23.8101 130.37 24.4401 130.37 25.1901C130.37 25.9401 130.64 26.57 131.17 27.09C131.71 27.6101 132.35 27.8701 133.09 27.8701C133.84 27.8701 134.48 27.6101 135.01 27.09C135.55 26.5601 135.82 25.93 135.82 25.1901ZM145.5 35.2001H142.55V17.93H145.5V25.08H148.56V27.7001H145.5V35.2001Z" fill="#575756"/>
<path d="M160.86 29.9101H157.91V21.2301H149.34V18.6101H160.85V29.9101H160.86ZM168.86 36.6501C168.86 37.4501 168.7 38.2001 168.37 38.9001C168.04 39.6001 167.61 40.2101 167.06 40.7401C166.5 41.2701 165.84 41.6901 165.08 42.0001C164.33 42.3101 163.53 42.4601 162.69 42.4601C161.85 42.4601 161.05 42.3101 160.29 42.0001C159.53 41.6901 158.86 41.2701 158.3 40.7401C157.75 40.2101 157.32 39.6001 156.99 38.9001C156.66 38.2001 156.5 37.4501 156.5 36.6501C156.5 35.8501 156.66 35.0901 156.99 34.3901C157.32 33.6801 157.75 33.0601 158.3 32.5301C158.86 32.0001 159.53 31.5801 160.29 31.2701C161.05 30.9601 161.85 30.8101 162.69 30.8101C163.53 30.8101 164.32 30.9601 165.08 31.2701C165.83 31.5801 166.49 32.0001 167.06 32.5301C167.61 33.0601 168.04 33.6801 168.37 34.3901C168.69 35.0901 168.86 35.8401 168.86 36.6501ZM165.97 36.6201C165.97 35.7301 165.64 34.9601 164.99 34.3101C164.34 33.6601 163.56 33.3401 162.67 33.3401C161.78 33.3401 161.01 33.6601 160.36 34.3101C159.71 34.9601 159.39 35.7201 159.39 36.6201C159.39 37.5101 159.71 38.2801 160.36 38.9101C161 39.5501 161.77 39.8601 162.67 39.8601C163.56 39.8601 164.33 39.5401 164.99 38.9101C165.64 38.2701 165.97 37.5101 165.97 36.6201ZM166.81 17.9301H169.76V30.5301H166.81V27.5601H162.91V25.1301H166.81V22.9501H162.91V20.5201H166.81V17.9301Z" fill="#575756"/>
<path d="M188.86 36.7001V39.3201H173.44V36.7001H178.3V28.8701H181.22V36.7001H188.86ZM184.46 33.9201V21.8601H174.31V19.2401H187.38V33.9201H184.46ZM193.63 41.6901H190.68V17.9301H193.63V27.9401H196.69V30.7501H193.63V41.6901Z" fill="#575756"/>
<path d="M212.13 19.4301V21.9701H198.27V19.4301H203.7V17.4401H206.84V19.4301H212.13ZM199.25 33.5901H217.97V41.4701H215.02V36.2001H199.25V33.5901ZM210.77 27.5101C210.77 28.2001 210.62 28.8601 210.33 29.4701C210.04 30.0901 209.65 30.6301 209.16 31.0801C208.65 31.5401 208.07 31.9001 207.41 32.1701C206.76 32.4401 206.05 32.5801 205.28 32.5801C204.52 32.5801 203.8 32.4401 203.14 32.1701C202.48 31.9001 201.89 31.5301 201.38 31.0801C200.89 30.6301 200.5 30.0901 200.21 29.4701C199.92 28.8501 199.77 28.2001 199.77 27.5101C199.77 26.8201 199.91 26.1601 200.21 25.5501C200.5 24.9301 200.89 24.4001 201.38 23.9401C201.89 23.4901 202.48 23.1201 203.14 22.8501C203.8 22.5801 204.52 22.4401 205.28 22.4401C206.04 22.4401 206.75 22.5801 207.41 22.8501C208.06 23.1201 208.65 23.4901 209.16 23.9401C209.65 24.4001 210.04 24.9301 210.33 25.5501C210.62 26.1601 210.77 26.8101 210.77 27.5101ZM207.95 27.4801C207.95 26.7701 207.69 26.1601 207.16 25.6501C206.63 25.1401 206 24.8901 205.28 24.8901C204.55 24.8901 203.93 25.1401 203.41 25.6501C202.89 26.1601 202.63 26.7701 202.63 27.4801C202.63 28.1901 202.89 28.8001 203.41 29.3101C203.93 29.8201 204.55 30.0701 205.28 30.0701C206.01 30.0701 206.63 29.8201 207.16 29.3101C207.69 28.8001 207.95 28.1901 207.95 27.4801ZM217.97 32.2501H215.02V17.9301H217.97V23.5001H221.38V26.4201H217.97V32.2501Z" fill="#575756"/>
<path d="M239.28 32.2H232.98V35.8H230.03V32.2H223.48V29.61H239.28V32.2ZM225.09 41.28V34.49H228.04V38.72H244.38V41.28H225.09ZM237.18 23.14C237.18 23.9 237.02 24.62 236.7 25.28C236.38 25.94 235.96 26.53 235.43 27.04C234.88 27.53 234.25 27.92 233.53 28.21C232.81 28.5 232.04 28.65 231.22 28.65C230.4 28.65 229.63 28.5 228.91 28.21C228.19 27.92 227.56 27.53 227.01 27.04C226.48 26.53 226.06 25.94 225.74 25.28C225.42 24.62 225.26 23.9 225.26 23.14C225.26 22.38 225.42 21.66 225.74 21C226.06 20.34 226.48 19.75 227.01 19.24C227.56 18.75 228.19 18.36 228.91 18.07C229.63 17.78 230.4 17.63 231.22 17.63C232.04 17.63 232.81 17.78 233.53 18.07C234.25 18.36 234.88 18.75 235.43 19.24C235.96 19.75 236.38 20.34 236.7 21C237.02 21.66 237.18 22.38 237.18 23.14ZM234.31 23.14C234.31 22.3 234.01 21.59 233.4 21.01C232.79 20.43 232.07 20.14 231.23 20.14C230.39 20.14 229.67 20.43 229.06 21.01C228.45 21.59 228.15 22.3 228.15 23.14C228.15 23.98 228.45 24.69 229.06 25.27C229.67 25.85 230.39 26.14 231.23 26.14C232.07 26.14 232.79 25.85 233.4 25.27C234.01 24.69 234.31 23.98 234.31 23.14ZM241.16 17.93H244.11V36.07H241.16V27.31H237.86V24.75H241.16V17.93Z" fill="#575756"/>
<path d="M44.65 27.54C39.64 24.13 33.22 25.52 29.85 30.65C27.04 34.93 22.79 35.46 21.14 35.46C15.78 35.46 12.11 31.69 11.02 27.79C11.01 27.75 11 27.72 10.99 27.68C10.98 27.64 10.97 27.59 10.96 27.55C10.53 25.92 10.43 25.14 10.43 23.41C10.43 14.08 20 3.69 33.8 3.69C47.92 3.69 56 14.44 58.09 20.42C58.06 20.31 58.02 20.21 57.99 20.1C53.96 8.4 42.88 0 29.84 0C13.42 0 0.0999756 13.31 0.0999756 29.74C0.0999756 44.42 10.69 56.99 25.37 56.99C37.09 56.99 44.96 50.42 48.57 41.37C50.55 36.41 49.15 30.6 44.65 27.54Z" fill="#003863"/>
<path d="M58.26 20.9901C56.52 15.1601 48.38 3.68005 33.79 3.68005C20 3.68005 10.42 14.0701 10.42 23.4001C10.42 25.1301 10.53 25.9101 10.95 27.5401C10.77 26.8301 10.68 26.1101 10.68 25.4201C10.68 15.7001 20.41 8.97005 30.42 8.97005C43.96 8.97005 54.94 19.9501 54.94 33.4901C54.94 44.1101 48.83 53.2901 39.95 57.7101V57.7201C51.39 53.5701 59.56 42.6201 59.56 29.7501C59.57 26.6901 59.16 24.0101 58.26 20.9901Z" fill="#E4032E"/>
<path d="M248.62 8.96991H246.33L246.67 7.81991H248.96L249.64 5.52991H250.79L250.11 7.81991H252.41L252.07 8.96991H249.77L249.09 11.2599H247.94L248.62 8.96991Z" fill="#006AB6"/>
<path d="M255.47 4.03992H258.56C260.58 4.03992 261.21 5.24992 260.73 6.85992C260.25 8.45992 258.89 9.67992 256.88 9.67992H255.11L254.2 12.7299H252.88L255.47 4.03992ZM257.09 8.54992C258.37 8.54992 259.12 7.82992 259.41 6.85992C259.7 5.87992 259.39 5.16992 258.1 5.16992H256.46L255.45 8.54992H257.09Z" fill="#006AB6"/>
<path d="M262.22 6.20999H263.46L263.15 7.23998H263.22C263.67 6.53999 264.44 6.10999 265.21 6.10999C265.37 6.10999 265.61 6.11999 265.74 6.12999L265.38 7.34999C265.28 7.32999 264.99 7.27999 264.73 7.27999C263.84 7.27999 263 7.88998 262.75 8.73998L261.57 12.71H260.29L262.22 6.20999Z" fill="#006AB6"/>
<path d="M266.68 6.20994H267.96L266.02 12.7199H264.74L266.68 6.20994ZM267.04 4.44994C267.17 4.02994 267.64 3.68994 268.08 3.68994C268.51 3.68994 268.78 4.02994 268.66 4.44994C268.53 4.86994 268.06 5.20994 267.63 5.20994C267.19 5.20994 266.92 4.86994 267.04 4.44994Z" fill="#006AB6"/>
<path d="M268.27 9.48992C268.9 7.36992 270.43 6.12992 272.01 6.12992C273.22 6.12992 273.45 6.85992 273.55 7.26992H273.61L274.57 4.03992H275.85L273.26 12.7199H272.01L272.31 11.6999H272.21C271.84 12.1299 271.16 12.8499 269.97 12.8499C268.41 12.8599 267.64 11.5799 268.27 9.48992ZM272.99 9.45992C273.39 8.10992 273.06 7.21992 271.96 7.21992C270.82 7.21992 269.97 8.17992 269.59 9.45992C269.2 10.7699 269.49 11.7599 270.61 11.7599C271.69 11.7599 272.58 10.8299 272.99 9.45992Z" fill="#006AB6"/>
<path d="M275.61 9.50988C276.21 7.50988 277.82 6.12988 279.63 6.12988C281.12 6.12988 282.25 7.04988 281.54 9.39988L281.4 9.85988H276.77C276.44 11.0899 276.95 11.7999 278.03 11.7999C278.76 11.7999 279.32 11.4899 279.66 11.0899H280.95C280.35 12.1499 279.13 12.8499 277.7 12.8499C275.78 12.8599 275 11.5399 275.61 9.50988ZM280.43 8.89988C280.73 7.89988 280.31 7.18988 279.32 7.18988C278.29 7.18988 277.39 7.97988 277.07 8.89988H280.43Z" fill="#006AB6"/>
</svg>
