<svg width="322" height="58" viewBox="0 0 322 58" fill="none" xmlns="http://www.w3.org/2000/svg">
<path d="M44.98 27.54C39.97 24.13 33.5501 25.52 30.1801 30.64C27.3601 34.92 23.12 35.45 21.47 35.45C16.11 35.45 12.44 31.68 11.35 27.77C11.34 27.73 11.3299 27.7 11.3199 27.66C11.3099 27.62 11.3 27.57 11.29 27.53C10.86 25.9 10.76 25.13 10.76 23.39C10.76 14.06 20.33 3.67 34.13 3.67C48.25 3.67 56.33 14.42 58.41 20.4C58.38 20.3 58.3501 20.19 58.3101 20.08C54.3001 8.4 43.22 0 30.17 0C13.75 0 0.439941 13.31 0.439941 29.74C0.439941 44.42 11.02 56.98 25.71 56.98C37.42 56.98 45.3 50.41 48.91 41.36C50.88 36.42 49.49 30.6 44.98 27.54Z" fill="#003863"/>
<path d="M58.59 20.9901C56.85 15.1601 48.71 3.68005 34.12 3.68005C20.33 3.68005 10.75 14.0701 10.75 23.4001C10.75 25.1301 10.85 25.9101 11.28 27.5401C11.1 26.8301 11 26.1101 11 25.4201C11 15.7001 20.73 8.96005 30.74 8.96005C44.28 8.96005 55.26 19.9301 55.26 33.4801C55.26 44.0901 49.15 53.2801 40.27 57.7001V57.7101C51.71 53.5701 59.89 42.6101 59.89 29.7401C59.9 26.6901 59.49 24.0101 58.59 20.9901Z" fill="#E4032E"/>
<path d="M84.9 43.7599V40.2699H75.41V37.6599H97.4301V40.2699H87.9399V43.7599H95.67V52.0999H92.66V46.3699H76.91V43.7599H84.9ZM95.61 28.6199V35.7399H92.6V31.2399H77.11V28.6299H95.61V28.6199Z" fill="#575756"/>
<path d="M111.68 48.9299H108.67V32.2699H99.74V29.6299H111.68V48.9299ZM119.89 37.9499H123.33V40.9099H119.89V52.0499H116.88V28.1399H119.89V37.9499Z" fill="#575756"/>
<path d="M138.61 48.7399H126.4V29.6299H138.61V48.7399ZM135.7 32.2099H129.36V46.1799H135.7V32.2099ZM143.51 28.1399H146.52V52.0499H143.51V28.1399Z" fill="#575756"/>
<path d="M156.33 28.2999L162.89 47.7899L160.22 48.7999L156.35 36.7999L152.51 48.9799L149.76 47.9899L156.33 28.2999ZM164.28 28.1599H167.11V51.9099H164.28V39.2499H161.19V36.6099H164.28V28.1599ZM169.16 28.1399H172.09V52.0499H169.16V28.1399Z" fill="#575756"/>
<path d="M176.51 41.1199V28.8299H188.88V41.1199H176.51ZM177.2 51.5899V43.5899H180.21V48.9499H196.84V51.5899H177.2ZM185.89 31.4099H179.49V38.5499H185.89V31.4099ZM193.62 36.2899H190.13V33.6799H193.62V28.1399H196.63V43.4699H193.62V36.2899Z" fill="#575756"/>
<path d="M200.39 32.2099V29.6199H214.84V32.2099H208.26L215.4 47.8799L212.73 48.9999L207.75 37.5599L202.74 49.1799L199.97 48.0299L207.17 32.1999H200.39V32.2099ZM218.68 28.1399H221.69V52.0499H218.68V28.1399Z" fill="#575756"/>
<path d="M225.66 31.3599V28.8299H239.44V31.3599H233.18L239.68 38.8199L237.55 40.4999L232.7 34.8199L227.82 40.9199L225.61 39.1599L232.11 31.3499H225.66V31.3599ZM244.51 47.4899C244.51 48.2699 244.35 49.0099 244.03 49.6899C243.71 50.3699 243.27 50.9599 242.72 51.4599C242.17 51.9899 241.52 52.4099 240.79 52.7099C240.06 53.0099 239.28 53.1599 238.48 53.1599C237.66 53.1599 236.88 53.0099 236.13 52.7099C235.38 52.4099 234.73 51.9899 234.18 51.4599C233.63 50.9599 233.2 50.3699 232.89 49.6899C232.58 49.0099 232.42 48.2699 232.42 47.4899C232.42 46.7299 232.58 45.9999 232.89 45.2999C233.2 44.6099 233.63 44.0099 234.18 43.5099C234.73 42.9799 235.38 42.5599 236.13 42.2599C236.31 42.1899 236.49 42.1299 236.69 42.0699V41.1399H240.24V42.0699C240.42 42.1199 240.6 42.1899 240.8 42.2599C241.53 42.5599 242.17 42.9799 242.72 43.5099C243.27 44.0099 243.71 44.5999 244.03 45.2999C244.35 45.9999 244.51 46.7199 244.51 47.4899ZM241.58 47.4899C241.58 46.6599 241.27 45.9299 240.65 45.2999C240.03 44.6699 239.3 44.3699 238.46 44.3699C237.64 44.3699 236.92 44.6799 236.3 45.2999C235.68 45.9199 235.37 46.6499 235.37 47.4899C235.37 48.3299 235.68 49.0499 236.3 49.6499C236.92 50.2499 237.64 50.5599 238.46 50.5599C239.29 50.5599 240.02 50.2599 240.65 49.6499C241.27 49.0399 241.58 48.3199 241.58 47.4899ZM243.74 40.8199V35.8899H239.29V33.3299H243.74V28.1299H246.75V40.8199H243.74Z" fill="#575756"/>
<path d="M268.07 32.8299V29.1499H271.06V42.8199H263.33V47.6399H272.82V50.2799H250.8V47.6399H260.29V42.8199H252.56V29.1499H255.55V32.8299H268.07ZM268.07 40.2099V35.4099H255.54V40.2099H268.07Z" fill="#575756"/>
<path d="M287.85 40.4799L285.37 41.7099L281.64 33.8499L277.93 41.8999L275.42 40.6999L281.6 28.0099L287.85 40.4799ZM277.3 51.5899V43.5899H280.31V48.9499H297.37V51.5899H277.3ZM289.67 28.1599H292.52V43.3299H289.67V36.1899H286.6V33.5999H289.67V28.1599ZM294.22 28.1399H297.13V43.4699H294.22V28.1399Z" fill="#575756"/>
<path d="M305.18 32.2099V37.8299H313.44V40.3899H305.18V46.1499H314.59V48.7399H302.2V32.2099H300.6V29.6199H314.33V32.2099H305.18ZM318.91 28.1399H321.92V52.0499H318.91V40.7199H314.97V38.1099H318.91V28.1399Z" fill="#575756"/>
<path d="M78.48 6.19994V4.68994H80.51V6.19994H84.01V7.75994H82.25C82.45 7.97994 82.62 8.21994 82.75 8.48994C82.94 8.86994 83.03 9.25994 83.03 9.68994C83.03 10.1099 82.94 10.5099 82.75 10.8899C82.56 11.2699 82.31 11.5999 81.99 11.8899C81.67 12.1799 81.3 12.3999 80.88 12.5499C80.74 12.6099 80.5901 12.6599 80.4301 12.6999V13.5299H84.3101V15.1099H74.61V13.5299H78.54V12.6799C78.4 12.6499 78.26 12.5999 78.12 12.5499C77.69 12.3999 77.31 12.1699 76.99 11.8899C76.67 11.5999 76.41 11.2699 76.23 10.8899C76.04 10.5099 75.95 10.1199 75.95 9.68994C75.95 9.26994 76.04 8.86994 76.23 8.48994C76.36 8.21994 76.53 7.97994 76.73 7.75994H74.9V6.19994H78.48ZM75.67 19.7299V16.0299H77.55V18.1699H87.5601V19.7299H75.67ZM81.1801 9.62994C81.1801 9.16994 81.0101 8.76994 80.6801 8.43994C80.3501 8.10994 79.94 7.94994 79.47 7.94994C79.02 7.94994 78.62 8.10994 78.29 8.43994C77.96 8.76994 77.79 9.15994 77.79 9.62994C77.79 10.0999 77.96 10.4899 78.29 10.8199C78.62 11.1499 79.02 11.3099 79.47 11.3099C79.95 11.3099 80.3501 11.1499 80.6801 10.8199C81.0201 10.4899 81.1801 10.0999 81.1801 9.62994ZM87.29 15.9099H85.41V5.07994H87.29V9.72994H89.2V11.3699H87.29V15.9099Z" fill="#575756"/>
<path d="M97.95 12.59H96.0699V7.15996H90.71V5.51996H97.95V12.59ZM102.83 17.14C102.83 17.63 102.73 18.08 102.53 18.51C102.33 18.94 102.06 19.3 101.72 19.61C101.38 19.94 100.98 20.2 100.52 20.39C100.07 20.58 99.58 20.67 99.08 20.67C98.57 20.67 98.08 20.58 97.62 20.39C97.16 20.2 96.75 19.94 96.41 19.61C96.08 19.3 95.81 18.93 95.61 18.51C95.41 18.09 95.3101 17.63 95.3101 17.14C95.3101 16.66 95.41 16.21 95.61 15.78C95.81 15.35 96.07 14.98 96.41 14.67C96.75 14.34 97.16 14.08 97.62 13.89C97.73 13.85 97.85 13.81 97.97 13.77V13.19H100.18V13.77C100.3 13.8 100.42 13.84 100.53 13.89C100.98 14.08 101.38 14.34 101.73 14.67C102.07 14.98 102.34 15.35 102.54 15.78C102.73 16.21 102.83 16.66 102.83 17.14ZM101.01 17.14C101.01 16.62 100.82 16.17 100.43 15.78C100.04 15.39 99.5899 15.2 99.0699 15.2C98.5599 15.2 98.11 15.39 97.73 15.78C97.35 16.17 97.16 16.62 97.16 17.14C97.16 17.66 97.35 18.11 97.73 18.48C98.11 18.85 98.5599 19.04 99.0699 19.04C99.5899 19.04 100.04 18.85 100.43 18.48C100.82 18.11 101.01 17.66 101.01 17.14ZM101.66 5.07996H103.54V12.98H101.66V11.29H99.22V9.76996H101.66V8.38996H99.22V6.87996H101.66V5.07996Z" fill="#575756"/>
<path d="M106.06 14.5H119.77V16.14H113.86V19.97H111.97V16.14H106.06V14.5ZM109.01 7.22996H116.81V5.32996H118.67V12.5H107.15V5.32996H109.01V7.22996ZM116.81 8.83996H109.01V10.88H116.81V8.83996Z" fill="#575756"/>
</svg>
