<svg width="151" height="58" viewBox="0 0 151 58" fill="none" xmlns="http://www.w3.org/2000/svg">
<path d="M89.4101 30.96V33.49H73.8101V30.96H80.0701V29.52C79.8901 29.47 79.7201 29.41 79.5601 29.33C78.9601 29.1 78.4301 28.78 77.9901 28.37C77.5301 27.96 77.1601 27.48 76.9001 26.93C76.6301 26.38 76.5001 25.79 76.5001 25.17C76.5001 24.57 76.6401 23.98 76.9301 23.41C77.1401 22.95 77.4201 22.54 77.7601 22.18H74.2401V19.67H79.8401V17.38H83.1201V19.67H88.6901V22.18H85.2001C85.5401 22.54 85.8301 22.95 86.0801 23.41C86.3301 23.98 86.4501 24.57 86.4501 25.17C86.4501 25.79 86.3201 26.38 86.0501 26.93C85.7801 27.48 85.4301 27.96 84.9801 28.37C84.5201 28.78 83.9801 29.1 83.3801 29.33C83.2201 29.4 83.0501 29.46 82.8701 29.52V30.96H89.4101ZM78.2101 35.15V38.72H94.6601V41.2H75.2501V35.15H78.2101ZM83.7901 25.12C83.7901 24.52 83.5601 23.98 83.1101 23.52C82.6601 23.06 82.1201 22.83 81.5001 22.83C80.8801 22.83 80.3401 23.06 79.8901 23.52C79.4401 23.98 79.2101 24.51 79.2101 25.12C79.2101 25.74 79.4401 26.27 79.8901 26.72C80.3401 27.16 80.8801 27.39 81.5001 27.39C82.1201 27.39 82.6601 27.17 83.1101 26.72C83.5601 26.28 83.7901 25.75 83.7901 25.12ZM94.0201 24.64H97.0601V27.44H94.0201V34.29H91.0601V17.9H94.0201V24.64Z" fill="#575756"/>
<path d="M112.68 29.74H109.72V21.05H101V18.41H112.68V29.74ZM120.55 36.61C120.55 37.41 120.39 38.16 120.06 38.86C119.73 39.56 119.29 40.18 118.74 40.71C118.17 41.24 117.51 41.66 116.75 41.98C116 42.29 115.2 42.45 114.36 42.45C113.52 42.45 112.72 42.29 111.96 41.98C111.2 41.67 110.53 41.25 109.96 40.71C109.43 40.18 109 39.56 108.67 38.86C108.34 38.16 108.18 37.41 108.18 36.61C108.18 35.81 108.34 35.06 108.67 34.36C109 33.66 109.43 33.04 109.96 32.51C110.53 31.98 111.2 31.55 111.96 31.24C112.72 30.93 113.52 30.77 114.36 30.77C115.2 30.77 115.99 30.93 116.75 31.24C117.5 31.55 118.17 31.97 118.74 32.51C119.29 33.04 119.73 33.66 120.06 34.36C120.38 35.06 120.55 35.82 120.55 36.61ZM117.64 36.59C117.64 35.7 117.31 34.94 116.65 34.3C115.99 33.66 115.22 33.34 114.33 33.34C113.44 33.34 112.67 33.66 112.02 34.3C111.37 34.94 111.05 35.7 111.05 36.59C111.05 37.49 111.38 38.26 112.02 38.9C112.67 39.53 113.44 39.85 114.33 39.85C115.22 39.85 115.99 39.53 116.65 38.9C117.31 38.26 117.64 37.49 117.64 36.59ZM118.63 17.9H121.59V30.38H118.63V27.74H114.74V25.29H118.63V23.02H114.74V20.6H118.63V17.9Z" fill="#575756"/>
<path d="M128.66 32.92H150.52V35.53H141.06V41.66H138.1V35.53H128.66V32.92ZM133.32 21.3H145.82V18.29H148.75V29.73H130.41V18.28H133.32V21.3ZM145.83 23.86H133.33V27.14H145.83V23.86Z" fill="#575756"/>
<path d="M44.55 27.54C39.54 24.13 33.12 25.52 29.75 30.64C26.93 34.92 22.69 35.45 21.04 35.45C15.68 35.45 12.01 31.68 10.92 27.77C10.91 27.73 10.9 27.7 10.89 27.66C10.88 27.62 10.87 27.57 10.86 27.53C10.43 25.9 10.33 25.13 10.33 23.39C10.33 14.06 19.9 3.67 33.7 3.67C47.82 3.67 55.9 14.42 57.98 20.4C57.95 20.3 57.92 20.19 57.88 20.08C53.86 8.4 42.78 0 29.73 0C13.31 0 0 13.31 0 29.74C0 44.42 10.58 56.98 25.27 56.98C36.98 56.98 44.86 50.41 48.47 41.36C50.45 36.42 49.05 30.6 44.55 27.54Z" fill="#003863"/>
<path d="M58.1599 20.9901C56.4199 15.1601 48.2799 3.68005 33.6899 3.68005C19.8999 3.68005 10.3199 14.0701 10.3199 23.4001C10.3199 25.1301 10.4199 25.9101 10.8499 27.5401C10.6699 26.8301 10.5699 26.1101 10.5699 25.4201C10.5699 15.7001 20.2999 8.96005 30.3099 8.96005C43.8499 8.96005 54.8299 19.9301 54.8299 33.4801C54.8299 44.0901 48.7199 53.2801 39.8399 57.7001V57.7101C51.2799 53.5701 59.4599 42.6101 59.4599 29.7401C59.4699 26.6901 59.0599 24.0101 58.1599 20.9901Z" fill="#E4032E"/>
</svg>
