<svg width="347" height="58" viewBox="0 0 347 58" fill="none" xmlns="http://www.w3.org/2000/svg">
<path d="M44.9799 27.54C39.9699 24.13 33.5499 25.52 30.1799 30.64C27.3599 34.92 23.1199 35.45 21.4699 35.45C16.1099 35.45 12.4399 31.68 11.3499 27.77C11.3399 27.73 11.3299 27.7 11.3199 27.66C11.3099 27.62 11.2999 27.57 11.2899 27.53C10.8599 25.9 10.7599 25.13 10.7599 23.39C10.7599 14.06 20.3299 3.67 34.1299 3.67C48.2499 3.67 56.3299 14.42 58.4099 20.4C58.3799 20.3 58.3499 20.19 58.3099 20.08C54.2999 8.4 43.22 0 30.17 0C13.75 0 0.439941 13.31 0.439941 29.74C0.439941 44.42 11.0199 56.98 25.7099 56.98C37.4199 56.98 45.2999 50.41 48.9099 41.36C50.8799 36.42 49.49 30.6 44.9799 27.54Z" fill="#003863"/>
<path d="M58.59 20.9901C56.85 15.1601 48.71 3.68005 34.12 3.68005C20.33 3.68005 10.75 14.0701 10.75 23.4001C10.75 25.1301 10.85 25.9101 11.28 27.5401C11.1 26.8301 11 26.1101 11 25.4201C11 15.7001 20.73 8.96005 30.74 8.96005C44.28 8.96005 55.26 19.9301 55.26 33.4801C55.26 44.0901 49.15 53.2801 40.27 57.7001V57.7101C51.71 53.5701 59.89 42.6101 59.89 29.7401C59.9 26.6901 59.49 24.0101 58.59 20.9901Z" fill="#E4032E"/>
<path d="M88.49 48.74H76.28V29.63H88.49V48.74ZM85.59 32.21H79.25V46.18H85.59V32.21ZM93.4 28.14H96.41V52.05H93.4V28.14Z" fill="#575756"/>
<path d="M106.22 28.3L112.78 47.79L110.11 48.8L106.24 36.8L102.4 48.98L99.66 48L106.22 28.3ZM114.16 28.16H116.99V51.91H114.16V39.25H111.07V36.61H114.16V28.16ZM119.04 28.14H121.97V52.05H119.04V28.14Z" fill="#575756"/>
<path d="M126.4 41.12V28.83H138.77V41.12H126.4ZM127.09 51.59V43.59H130.1V48.95H146.73V51.59H127.09ZM135.78 31.41H129.38V38.55H135.78V31.41ZM143.51 36.29H140.02V33.68H143.51V28.14H146.52V43.47H143.51V36.29Z" fill="#575756"/>
<path d="M150.28 32.21V29.62H164.73V32.21H158.15L165.29 47.88L162.62 49L157.64 37.56L152.63 49.18L149.86 48.03L157.06 32.2H150.28V32.21ZM168.57 28.14H171.58V52.05H168.57V28.14Z" fill="#575756"/>
<path d="M175.63 40.48H197.65V43.01H175.63V40.48ZM180.8 30.88V32.4H195.75V34.83H180.8V36.4H195.94V38.88H177.79V30.88H176.19V28.37H195.86V30.88H180.8ZM177.12 44.64H195.89V52.1H192.88V47.14H177.13V44.64H177.12Z" fill="#575756"/>
<path d="M201.57 28.67H204.56V31.12H211.2V28.67H214.13V38.85H201.57V28.67ZM202.87 40.61H221.69V47.14H205.88V49.17H221.95V51.6H202.86V44.9H218.67V42.93H202.86V40.61H202.87ZM211.19 33.55H204.55V36.46H211.19V33.55ZM218.68 28.14H221.69V39.47H218.68V37.28H215.19V34.91H218.68V32.99H215.19V30.62H218.68V28.14Z" fill="#575756"/>
<path d="M236.33 29.63V32.22H229.67V46.16H236.63V48.75H226.63V32.21H225.03V29.62H236.33V29.63ZM244.32 28.14H247.25V52.05H244.32V41.04H241.2V51.92H238.37V28.16H241.2V38.5H244.32V28.14Z" fill="#575756"/>
<path d="M250.48 32.69V30.18H255.04V27.86H258.24V30.18H262.66V32.69H257.14L262.92 40.29L260.76 41.76L256.58 36.24L252.53 41.94L250.32 40.42L256.03 32.69H250.48ZM252.51 42.98H272.08V51.83H269.07V45.62H252.52V42.98H252.51ZM269.17 28.14H272.08V41.76H269.17V36.43H266.85V41.63H264V28.16H266.85V33.68H269.17V28.14Z" fill="#575756"/>
<path d="M291.69 44.8H285.11V51.28H282.1V44.8H275.76V42.16H291.7V44.8H291.69ZM290.07 34.61C290.07 35.43 289.9 36.21 289.55 36.94C289.2 37.68 288.74 38.32 288.15 38.87C287.56 39.42 286.87 39.86 286.08 40.18C285.29 40.5 284.45 40.66 283.56 40.66C282.67 40.66 281.84 40.5 281.05 40.18C280.26 39.86 279.58 39.43 279 38.87C278.41 38.32 277.95 37.68 277.61 36.94C277.27 36.2 277.1 35.43 277.1 34.61C277.1 33.79 277.27 33.01 277.61 32.28C277.95 31.55 278.41 30.9 279 30.35C279.59 29.8 280.27 29.36 281.05 29.04C281.83 28.72 282.67 28.56 283.56 28.56C284.45 28.56 285.29 28.72 286.08 29.04C286.87 29.36 287.56 29.8 288.15 30.35C288.74 30.9 289.2 31.55 289.55 32.28C289.9 33.01 290.07 33.8 290.07 34.61ZM287.08 34.61C287.08 33.65 286.73 32.83 286.04 32.14C285.35 31.46 284.52 31.11 283.56 31.11C282.6 31.11 281.78 31.45 281.11 32.14C280.43 32.82 280.1 33.65 280.1 34.61C280.1 35.57 280.44 36.39 281.11 37.08C281.78 37.76 282.6 38.11 283.56 38.11C284.52 38.11 285.35 37.77 286.04 37.08C286.73 36.4 287.08 35.57 287.08 34.61ZM293.56 28.14H296.57V52.05H293.56V28.14Z" fill="#575756"/>
<path d="M316.75 42.5H310.43V46.13H307.39V42.5H300.81V39.89H316.75V42.5ZM302.43 51.65V44.8H305.44V49.06H321.89V51.65H302.43ZM314.64 33.39C314.64 34.15 314.48 34.87 314.15 35.54C313.82 36.21 313.39 36.8 312.86 37.31C312.31 37.81 311.67 38.2 310.95 38.5C310.23 38.79 309.45 38.94 308.62 38.94C307.79 38.94 307.01 38.79 306.29 38.5C305.57 38.21 304.93 37.81 304.38 37.31C303.85 36.79 303.42 36.2 303.1 35.54C302.78 34.87 302.62 34.16 302.62 33.39C302.62 32.61 302.78 31.88 303.1 31.22C303.42 30.55 303.85 29.96 304.38 29.45C304.93 28.97 305.57 28.58 306.29 28.29C307.01 28 307.79 27.85 308.62 27.85C309.45 27.85 310.23 28 310.95 28.29C311.67 28.58 312.3 28.97 312.86 29.45C313.39 29.97 313.82 30.56 314.15 31.22C314.48 31.88 314.64 32.61 314.64 33.39ZM311.71 33.39C311.71 32.54 311.4 31.82 310.79 31.23C310.18 30.64 309.45 30.35 308.62 30.35C307.79 30.35 307.07 30.64 306.46 31.23C305.85 31.82 305.55 32.54 305.55 33.39C305.55 34.23 305.85 34.94 306.46 35.52C307.07 36.1 307.78 36.4 308.62 36.4C309.46 36.4 310.18 36.11 310.79 35.52C311.4 34.93 311.71 34.22 311.71 33.39ZM318.61 28.14H321.62V46.4H318.61V37.84H315.28V35.25H318.61V28.14Z" fill="#575756"/>
<path d="M339.59 38.88C339.59 39.61 339.43 40.3 339.12 40.96C338.81 41.62 338.39 42.2 337.85 42.69C337.32 43.19 336.69 43.57 335.98 43.84C335.73 43.95 335.47 44.04 335.21 44.11V47.12H341.79V49.73H325.85V47.12H332.19V44.1C331.92 44.03 331.66 43.94 331.39 43.83C330.68 43.56 330.06 43.18 329.52 42.68C328.98 42.18 328.57 41.6 328.27 40.95C327.97 40.29 327.82 39.6 327.82 38.87C327.82 38.12 327.97 37.42 328.27 36.76C328.57 36.1 328.99 35.53 329.52 35.05C330.05 34.55 330.68 34.17 331.39 33.89C332.1 33.61 332.86 33.48 333.68 33.48C334.5 33.48 335.26 33.62 335.97 33.89C336.68 34.17 337.3 34.55 337.84 35.05C338.37 35.53 338.8 36.1 339.11 36.76C339.44 37.43 339.59 38.13 339.59 38.88ZM332.07 30.54V27.98H335.32V30.54H341.03V33.07H326.37V30.54H332.07ZM336.66 38.88C336.66 38.08 336.37 37.4 335.79 36.84C335.21 36.28 334.52 36 333.7 36C332.88 36 332.19 36.28 331.63 36.84C331.07 37.4 330.79 38.08 330.79 38.88C330.79 39.66 331.07 40.34 331.63 40.91C332.19 41.48 332.88 41.76 333.7 41.76C334.52 41.76 335.22 41.48 335.79 40.91C336.37 40.34 336.66 39.66 336.66 38.88ZM343.67 28.14H346.68V52.05H343.67V28.14Z" fill="#575756"/>
<path d="M80.75 14.81V12.64H74.84V11.01H88.55V12.64H82.64V14.81H87.45V20.01H85.57V16.44H75.76V14.81H80.75ZM87.43 5.38V9.81001H85.55V7.01H75.9V5.38H87.43Z" fill="#575756"/>
<path d="M90.45 16.14V14.5H104.16V16.14H98.2499V19.97H96.3599V16.14H90.45ZM91.5399 5.52002H103.06V12.16H91.5399V5.52002ZM101.21 7.14002H93.4099V10.54H101.21V7.14002Z" fill="#575756"/>
<path d="M119.77 12.71V14.29H106.06V12.71H111.97V10.78H113.86V12.71H119.77ZM107.02 7.82V6.26H111.89V4.62H113.93V6.26H118.83V7.82H113.33L119.07 10.78L118.14 12.13L112.89 9.47L107.66 12.13L106.73 10.78L112.49 7.82H107.02ZM106.99 15.38H118.68V20.01H116.8V16.94H106.99V15.38Z" fill="#575756"/>
<path d="M130.18 17.92H122.21V11.13H128.14V7.62996H122.21V6.00996H130.01V12.72H124.07V16.31H130.18V17.92ZM132.87 5.07996H134.75V19.97H132.87V5.07996Z" fill="#575756"/>
<path d="M148.16 17.24V12.97H150.05V17.24H155.96V18.88H142.25V17.24H148.16ZM149.11 8.16005L144.15 14.37L142.69 13.29L149.12 5.30005L155.53 13.29L154.07 14.37L149.11 8.16005Z" fill="#575756"/>
<path d="M171.57 12.26V13.87H157.86V12.26H163.77V9.67003H165.66V12.26H171.57ZM164.71 7.14003L159.55 11.54L158.32 10.23L164.71 4.78003L171.09 10.23L169.86 11.54L164.71 7.14003ZM158.79 15.16H170.48V20.01H168.6V16.76H158.79V15.16Z" fill="#575756"/>
</svg>
