<svg width="1375" height="411" viewBox="0 0 1375 411" fill="none" xmlns="http://www.w3.org/2000/svg">
<g clip-path="url(#clip0_99_2)">
<path d="M1001.88 93.1C996.09 92.89 990.22 91.99 984.53 92.62C971.78 94.02 959.12 96.21 946.42 98.02C944.05 98.36 941.39 99.14 939.33 98.4C937.29 97.66 934.41 95.28 934.39 93.58C934.28 86.69 934.44 79.64 935.82 72.93C937.28 65.89 940.66 64.4 947.91 63.95C958.15 63.31 968.36 62.15 978.58 61.21C1001.06 59.14 1023.22 60.48 1045.01 66.84C1053.05 69.19 1055.07 72.22 1053.09 80.4C1048.76 98.25 1041.33 114.27 1027.11 126.6C1022.5 130.59 1023.21 132 1027.62 136.4C1037.31 146.1 1046.78 156.04 1056 166.19C1061.88 172.66 1059.49 179.87 1056.05 186.48C1052.71 192.91 1046.85 195.77 1039.65 196.01C1030.4 196.32 1024.3 190.47 1018.42 184.73C1013.58 180 1009.69 174.33 1005.07 169.36C996.2 159.81 986.27 157.28 974.78 163.36C965.94 168.04 958.16 174.72 949.92 180.52C947.22 182.42 944.71 184.7 941.81 186.2C936.82 188.79 932.43 187.17 930.27 182.09C924.03 167.37 925.03 153 934.1 139.9C936.82 135.97 941.59 132.45 946.15 130.98C960.99 126.2 973.73 118.15 985.55 108.32C991.09 103.71 996.6 99.07 1002.13 94.45C1002.05 94 1001.97 93.55 1001.88 93.1Z" fill="#00DE86"/>
<path d="M1000.73 243.04C1010.05 242.53 1018.8 242.18 1027.53 241.55C1058.87 239.3 1090.21 236.96 1121.54 234.67C1124.85 234.43 1128.19 234.44 1131.5 234.11C1135.59 233.69 1137.89 235.88 1138.89 239.36C1141.9 249.88 1142.53 260.37 1138.76 270.98C1136.8 276.49 1133.22 278.91 1127.67 279.24C1106.85 280.48 1086.05 282.06 1065.22 282.96C1036.69 284.19 1008.15 284.93 979.611 285.83C977.051 285.91 974.451 285.8 971.921 285.43C963.761 284.22 960.051 280.45 959.591 272.4C958.541 254.3 957.671 236.18 956.811 218.06C956.481 211.1 959.55 205.12 962.97 199.4C963.74 198.12 965.851 197 967.391 196.93C974.181 196.64 980.99 196.68 987.79 196.77C991.85 196.82 994.44 198.38 994.98 203.07C996.14 213.27 997.781 223.41 999.251 233.57C999.661 236.54 1000.17 239.5 1000.73 243.04Z" fill="#00DE86"/>
<path d="M1126.19 195.45C1125.64 202.21 1123.85 203.75 1116.92 203.69C1106.34 203.61 1095.77 203.41 1085.19 203.19C1079.17 203.07 1077.11 201.93 1076.87 196.08C1076.26 181.18 1076.09 166.24 1076.28 151.33C1076.67 119.91 1077.54 88.5001 1077.89 57.0801C1077.99 48.3101 1081.96 41.4401 1090.46 38.8701C1101.49 35.5401 1112.67 35.2201 1123.19 40.3001C1129.02 43.1201 1132.26 49.3801 1132.6 55.2801C1133.44 69.7201 1132.87 84.2501 1132.87 98.7401C1133.23 98.7601 1128.82 163.23 1126.19 195.45Z" fill="#00DE86"/>
<path d="M1266.96 292.2C1250.67 294.1 1234.66 291.96 1218.82 288.5C1206.15 285.73 1194.96 280.03 1186.49 269.82C1182.74 265.31 1180.2 260.42 1180.09 254.27C1179.62 228.9 1190.61 213.9 1218.55 204.75C1238.26 198.29 1258.66 197.34 1279.07 200.02C1295.51 202.18 1311.92 204.9 1328.1 208.48C1338.55 210.79 1347.28 216.55 1351.02 227.66C1356.21 243.08 1351.67 258.6 1339.09 268.74C1326.24 279.1 1312.61 288.03 1295.9 290.32C1286.34 291.63 1276.61 291.62 1266.96 292.2ZM1270.88 225.18C1261.85 225.18 1254.9 225.25 1247.96 225.16C1242.17 225.08 1238.04 227.53 1235.89 232.89C1234.61 236.09 1233.44 239.4 1232.75 242.76C1231.75 247.61 1233.95 251.52 1238.62 253.16C1241.87 254.3 1245.3 255.22 1248.72 255.51C1263.6 256.78 1278.5 257.88 1293.4 258.85C1302.1 259.42 1308.93 252.8 1309.98 243.15C1310.9 234.69 1306.43 228.92 1297.19 227.7C1287.78 226.46 1278.28 225.87 1270.88 225.18Z" fill="#00DE86"/>
<path d="M1195.66 90.2001C1195.66 81.7501 1192.78 75.5702 1195.22 62.9902C1197.65 50.4102 1229.17 44.4601 1223.86 84.9901C1223.03 91.3601 1223.45 91.6301 1229.89 92.8101C1235.07 93.7601 1255.75 89.8701 1261.01 90.0401C1265.29 90.1801 1267.56 92.3601 1268.4 96.0201C1269.41 100.41 1270.31 104.93 1270.38 109.41C1270.48 115.56 1245.38 123.9 1245.09 128.81C1244.64 136.33 1264.2 145.17 1272.35 148.07C1280.19 150.86 1281.54 154.04 1276.84 160.82C1269.89 170.87 1268.09 174.85 1260.67 184.57C1257.71 188.45 1254.78 189.01 1250.86 185.93C1244.82 181.19 1239.23 175.87 1233.6 170.64C1231.74 168.91 1225.22 167.28 1224.15 168.48C1216.82 176.73 1209.46 184.94 1201.98 193.05C1194.99 200.62 1190.24 201.18 1181.17 196.18C1177.61 194.22 1173.77 192.78 1170.12 190.97C1164.06 187.98 1162.76 185 1166.61 179.52C1173.02 170.39 1179.92 161.57 1187.12 153.04C1193.33 145.68 1200.24 138.92 1207.46 131.22C1205.52 130.83 1204.32 130.48 1203.1 130.36C1190.17 129.09 1177.24 127.75 1164.3 126.64C1155.94 125.92 1149.47 121.99 1144.35 115.61C1137.93 107.62 1142.41 90.6601 1151.99 87.2801C1154.25 86.4801 1157.03 86.8501 1159.52 87.1101C1168.19 88.0301 1176.83 89.3501 1185.52 90.0701C1188.27 90.3001 1191.55 91.0001 1195.66 90.2001Z" fill="#00DE86"/>
<path d="M1295.38 127.04C1296.13 109.99 1296.89 92.9502 1297.61 75.9002C1297.87 69.6502 1300.77 65.7102 1306.72 63.2502C1313.09 60.6202 1319.52 59.8702 1326.21 60.2902C1335.47 60.8702 1340.96 67.2402 1341.05 76.4402C1341.12 83.8302 1341.94 91.2102 1342.4 98.5902C1342.62 102.07 1344.62 103.71 1347.91 104C1353.93 104.53 1359.95 104.94 1365.96 105.57C1371.72 106.17 1374.7 108.71 1374.74 114.5C1374.78 119.98 1373.73 125.51 1372.73 130.94C1371.69 136.56 1367.57 138.84 1362.2 138.99C1357.07 139.14 1351.92 139.32 1346.8 139.02C1342.88 138.79 1341.59 139.93 1341.61 144.02C1341.65 155.04 1341.29 166.06 1340.84 177.07C1340.54 184.48 1338.45 186.3 1331.06 186.31C1324.11 186.32 1317.16 186.33 1310.22 186.14C1301.54 185.91 1295.81 180.1 1295.77 171.46C1295.69 156.66 1295.75 141.85 1295.75 127.05C1295.63 127.05 1295.5 127.04 1295.38 127.04Z" fill="#00DE86"/>
<path d="M544.01 60.39C551.48 60.51 558.96 60.88 566.39 61.59C580.81 62.95 586.82 68.39 589.08 82.55C590.55 91.78 588.21 144.19 582.77 160.4C580.33 167.67 577.69 174.92 574.55 181.91C571.3 189.14 565.72 193.33 557.64 195.51C545.32 198.83 533.11 198.06 520.92 196.52C507.01 194.76 493.16 192.33 479.42 189.52C468.61 187.31 461.13 178.59 460.89 167.48C460.49 149.38 460.78 131.26 461.11 113.15C461.41 96.85 462.24 80.56 462.67 64.26C462.82 58.4 462.61 58.47 468.33 58.49C481.1 58.54 493.88 58.51 506.65 58.51C506.87 58.51 531.78 60.2 544.01 60.39ZM502.07 139.75C502.16 143.38 504.23 145.84 507.95 146.05C515.02 146.44 522.14 146.99 529.18 146.55C534.63 146.21 539.44 141.38 539.74 136.75C540.55 124.01 539.92 111.38 535.9 99.09C535.03 96.43 533.6 95.72 530.9 96C522.33 96.89 513.74 97.63 505.15 98.24C502.48 98.43 501.43 99.41 501.5 102.12C501.64 107.72 501.91 132.81 502.07 139.75Z" fill="#00DE86"/>
<path d="M498.98 302.34C493.96 302.42 488.77 301.37 483.92 299.93C479.67 298.66 476.81 295.24 476.57 290.49C475.28 265.73 474.25 240.96 472.74 216.22C472.32 209.24 476.27 205.97 481.7 205.35C490.78 204.31 500.05 204.77 509.24 204.8C513.05 204.81 514.66 207.27 515.14 210.93C516.82 223.66 518.7 236.36 520.41 249.09C521.24 255.28 521.16 255.41 527.27 255.02C565.13 252.6 602.99 250.16 640.84 247.64C648.98 247.1 657.09 246.27 665.21 245.48C669.12 245.1 671.73 246.78 672.88 250.37C677.16 263.77 677.69 277.09 671.21 290.03C669.08 294.28 664.75 294.71 660.67 294.98C645.59 295.96 630.5 296.91 615.4 297.68C589.75 298.98 512.12 302.14 498.98 302.34Z" fill="#00DE86"/>
<path d="M635.8 150.27C630.71 150.85 626.26 151.37 621.81 151.86C620.31 152.03 618.8 152.19 617.3 152.28C602.87 153.12 596.86 147.13 597.63 132.66C598.11 123.67 601.96 116.04 607.82 109.48C609.16 107.99 611.68 107.06 613.77 106.82C620.47 106.06 627.22 105.74 634.49 105.21C634.49 104.04 634.51 102.57 634.49 101.11C634.3 87.51 634.46 73.9 633.79 60.32C633.31 50.58 640.73 43.65 650.1 44.2C659.29 44.74 667.75 47.14 674.48 53.43C676.73 55.53 678.58 59.36 678.57 62.38C678.39 101.36 677.86 140.35 677.32 179.33C677.28 182.48 676.71 185.66 676.02 188.74C672.88 202.63 661.87 208.89 646.4 205.7C645.22 205.46 644.04 205.16 642.88 204.83C636.99 203.12 635.83 201.64 635.81 195.54C635.78 182.24 635.8 168.94 635.8 155.64C635.8 154.03 635.8 152.41 635.8 150.27Z" fill="#00DE86"/>
<path d="M704.45 57.8901C706.42 57.6201 708.78 57.0001 711.13 57.0101C731.08 57.0601 751.05 56.7501 770.98 57.5401C782.08 57.9801 793.2 59.8201 804.13 61.9601C813.57 63.8101 818.81 70.6802 818.21 80.3701C816.79 103.42 814.75 126.44 812.96 149.47C812.87 150.68 812.81 151.88 812.67 153.08C810.82 168.67 800.05 180.15 785.14 182.6C778.39 183.71 771.4 183.71 764.53 183.58C752.6 183.37 740.63 181.82 728.75 182.39C715.57 183.03 701.86 167.34 701.85 156.86C701.84 140.56 701.77 124.26 702.2 107.98C702.63 91.5602 703.65 75.1301 704.45 57.8901ZM739.37 94.4102C739.37 107.15 739.3 119.35 739.41 131.54C739.45 135.56 742.16 137.58 745.84 137.8C751.7 138.16 757.6 138.41 763.46 138.11C768.32 137.86 773.19 133.82 773.57 129.71C774.68 117.75 774.05 105.89 769.95 94.4501C769.59 93.4501 768.14 92.0602 767.29 92.1202C757.99 92.7402 748.72 93.6102 739.37 94.4102Z" fill="#00DE86"/>
<path d="M806.78 290.39C789.58 292.37 772.68 290.34 755.94 286.56C742.44 283.51 730.83 277.2 722.39 265.84C719.13 261.44 717.61 256.6 717.65 251.06C717.84 226.53 728.48 211.93 756.69 202.85C772.06 197.9 787.98 196.32 804.13 197.32C824.82 198.61 845.39 200.81 865.39 206.46C875.54 209.33 884.4 214.3 888.35 225.12C894.01 240.61 889.69 256.28 876.97 266.7C864.32 277.07 850.82 285.93 834.32 288.4C825.26 289.77 815.97 289.77 806.78 290.39ZM774.12 243.12C774.02 249.99 775.24 251.58 781.86 253.05C783.33 253.38 784.82 253.64 786.32 253.76C800.76 254.89 815.21 255.96 829.66 257.09C838.94 257.82 846.18 251.87 847.52 242.32C848.8 233.2 844.97 227.4 834.5 226.55C820.41 225.4 806.12 224.97 792.05 226.02C778.95 226.98 774.28 232.62 774.12 243.12Z" fill="#00DE86"/>
<path d="M844.17 75.4101C844.2 70.3201 843.33 58.5001 848.03 56.1601C851.41 54.4801 874.31 55.7701 881.07 56.9301C885.67 57.7201 887.96 60.5901 888.1 65.4901C888.32 73.1901 888.84 80.8901 889.46 88.5701C889.98 95.1101 891 95.9601 897.46 96.4801C902.88 96.9201 908.31 97.3001 913.72 97.8701C918.82 98.4101 921.86 100.79 921.8 105.87C921.74 112.09 920.58 118.33 919.45 124.49C918.71 128.53 915.57 130.6 911.61 130.85C905.44 131.23 899.25 131.45 893.07 131.4C889.91 131.37 888.96 132.38 888.91 135.54C888.75 147.17 888.4 158.8 887.88 170.42C887.61 176.47 885.44 178.5 879.38 178.56C871.83 178.63 864.26 178.53 856.71 178.25C848.64 177.94 842.97 171.98 842.93 163.83C842.86 149.16 844.1 90.2201 844.17 75.4101Z" fill="#00DE86"/>
<path d="M487.57 339.28L503.93 379.36H504.57L520.93 339.28H530.5V391H523V353.64H522.5L507.35 390.93H501.13L485.91 353.57H485.48V391.01H478V339.29H487.57V339.28Z" fill="#333333"/>
<path d="M546.2 339.28H578.63V346.07H554.05V361.72H576.91V368.44H554.05V384.23H578.91V391.02H546.2V339.28Z" fill="#333333"/>
<path d="M615.04 391.72C601.54 391.72 591.68 381.65 591.68 365.14C591.68 348.57 601.54 338.56 615.04 338.56C628.4 338.56 638.33 348.56 638.33 365.14C638.33 381.65 628.4 391.72 615.04 391.72ZM615.04 345.79C606.11 345.79 599.47 352.58 599.47 365.15C599.47 377.72 606.11 384.51 615.04 384.51C623.9 384.51 630.54 377.72 630.54 365.15C630.54 352.58 623.9 345.79 615.04 345.79Z" fill="#333333"/>
<path d="M694.03 391.01H686.81L660.59 353.22H660.16V391.01H652.3V339.29H659.59L685.81 377.15H686.31V339.29H694.03V391.01Z" fill="#333333"/>
<path d="M719.3 339.28L735.66 379.36H736.3L752.66 339.28H762.23V391H754.73V353.64H754.23L739.08 390.93H732.86L717.64 353.57H717.21V391.01H709.71V339.29H719.3V339.28Z" fill="#333333"/>
<path d="M773.99 391.01L792.57 339.29H801.64L820.29 391.01H811.93L807.22 377.36H787.07L782.35 391.01H773.99ZM804.93 370.79L797.29 348.71H796.93L789.36 370.79H804.93Z" fill="#333333"/>
<path d="M873.7 391.01H866.48L840.26 353.22H839.83V391.01H831.97V339.29H839.26L865.48 377.15H865.98V339.29H873.7V391.01Z" fill="#333333"/>
<path d="M910.9 345.79C902.18 345.79 895.47 352.65 895.47 365.15C895.47 377.65 902.11 384.51 911.26 384.51C919.51 384.51 924.98 379.29 925.12 371.01H912.4V364.51H932.76V370.37C932.76 383.44 923.76 391.73 911.18 391.73C897.18 391.73 887.68 381.51 887.68 365.15C887.68 348.65 897.47 338.57 910.83 338.57C922.05 338.57 930.62 345.57 932.41 355.64H924.34C922.4 349.5 917.75 345.79 910.9 345.79Z" fill="#333333"/>
<path d="M974.88 339.28V375.93C974.88 385.93 968.59 391.72 959.09 391.72C950.3 391.72 943.73 386.79 943.73 378H951.52C951.59 382.36 954.81 385 959.31 385C964.24 385 967.02 381.86 967.02 375.93V339.28H974.88Z" fill="#333333"/>
<path d="M998.36 391.01H990.5V339.29H998.36V391.01Z" fill="#333333"/>
<path d="M1055.7 391.01H1048.48L1022.26 353.22H1021.83V391.01H1013.97V339.29H1021.26L1047.48 377.15H1047.98V339.29H1055.7V391.01Z" fill="#333333"/>
<path d="M1093.04 345.79C1084.11 345.79 1077.47 352.65 1077.47 365.15C1077.47 377.72 1084.19 384.51 1093.04 384.51C1099.54 384.51 1105.04 380.87 1106.4 374.29L1114.33 374.36C1112.69 384.58 1104.33 391.72 1092.97 391.72C1079.47 391.72 1069.68 381.65 1069.68 365.14C1069.68 348.57 1079.54 338.56 1092.97 338.56C1103.9 338.56 1112.55 344.99 1114.33 356.13H1106.4C1105.11 349.5 1099.61 345.79 1093.04 345.79Z" fill="#333333"/>
<path d="M1127.95 339.28H1135.81V361.71H1161.53V339.28H1169.39V391H1161.53V368.42H1135.81V391H1127.95V339.28Z" fill="#333333"/>
<path d="M1181.15 391.01L1199.73 339.29H1208.8L1227.45 391.01H1219.09L1214.38 377.36H1194.23L1189.51 391.01H1181.15ZM1212.08 370.79L1204.44 348.71H1204.08L1196.51 370.79H1212.08Z" fill="#333333"/>
<path d="M1280.85 391.01H1273.63L1247.41 353.22H1246.98V391.01H1239.12V339.29H1246.41L1272.63 377.15H1273.13V339.29H1280.85V391.01Z" fill="#333333"/>
<path d="M1318.05 345.79C1309.33 345.79 1302.62 352.65 1302.62 365.15C1302.62 377.65 1309.26 384.51 1318.41 384.51C1326.66 384.51 1332.13 379.29 1332.27 371.01H1319.55V364.51H1339.91V370.37C1339.91 383.44 1330.91 391.73 1318.33 391.73C1304.33 391.73 1294.83 381.51 1294.83 365.15C1294.83 348.65 1304.62 338.57 1317.98 338.57C1329.2 338.57 1337.77 345.57 1339.56 355.64H1331.49C1329.55 349.5 1324.91 345.79 1318.05 345.79Z" fill="#333333"/>
<path d="M256.07 410.4C245.13 410.4 234.05 408.16 223.48 403.41C213.01 398.71 203.69 391.82 196.14 383.24C186.66 391.36 175.4 397.16 163.14 400.17C120.6 410.63 77.1401 384.63 66.2601 342.23C63.4101 331.11 62.9901 319.53 64.9801 308.29C52.7201 305.94 41.1701 300.76 31.1701 293.05C-3.51989 266.31 -10.2999 216.13 16.0601 181.18C22.9801 172.02 31.7701 164.46 41.8101 159.01C36.0001 147.96 32.8501 135.69 32.6401 123.08C31.9101 79.2799 66.9201 42.6899 110.68 41.5199C122.16 41.2199 133.55 43.3699 144.07 47.8299C149.09 36.3999 156.71 26.2899 166.45 18.2599C200.24 -9.61005 250.67 -5.06005 278.88 28.4299C286.28 37.2099 291.68 47.4699 294.76 58.4599C306.82 55.2599 319.48 54.9199 331.83 57.5199C374.69 66.5599 402.57 108.83 393.98 151.75C391.73 163.01 387.08 173.63 380.4 182.9C390.43 190.33 398.59 200.02 404.25 211.3C423.91 250.45 408.24 298.6 369.33 318.65C359.12 323.91 347.92 326.89 336.51 327.45C336.95 339.93 334.46 352.34 329.17 363.8C315.69 393.05 286.48 410.4 256.07 410.4ZM197.8 359.82L203.2 367.53C209.91 377.1 219.09 384.69 229.75 389.47C262.08 403.99 300.46 389.6 315.32 357.39C320.6 345.94 322.44 333.31 320.61 320.86L319.25 311.54L328.65 312.12C340.32 312.83 351.96 310.4 362.35 305.05C393.85 288.82 406.53 249.84 390.62 218.15C384.96 206.87 376.22 197.57 365.36 191.23L357.23 186.49L363.54 179.51C371.38 170.84 376.73 160.2 379.03 148.74C385.98 114 363.41 79.7799 328.71 72.4599C316.37 69.8499 303.64 70.8799 291.92 75.4299L283.14 78.8399L281.62 69.5499C279.73 58.0199 274.75 47.1999 267.22 38.2699C244.39 11.1699 203.56 7.47995 176.21 30.0499C166.48 38.0799 159.35 48.6699 155.59 60.6699L152.78 69.6499L144.57 65.0499C134.38 59.3399 122.86 56.5099 111.13 56.7999C75.7101 57.7499 47.3701 87.3699 47.9601 122.83C48.1701 135.44 52.0001 147.62 59.0401 158.04L64.3101 165.84L55.5901 169.4C44.7701 173.81 35.3301 181.07 28.2901 190.4C6.95011 218.69 12.4401 259.31 40.5301 280.96C50.5301 288.66 62.4301 293.26 74.9601 294.25L84.3501 294.99L81.6901 304.02C78.3901 315.23 78.1801 327.13 81.0901 338.45C89.9001 372.78 125.08 393.82 159.52 385.35C171.77 382.34 182.79 375.9 191.38 366.71L197.8 359.82Z" fill="#00DE86"/>
<path d="M150.99 180.94C155.21 180.94 158.63 177.519 158.63 173.3C158.63 169.08 155.21 165.66 150.99 165.66C146.771 165.66 143.35 169.08 143.35 173.3C143.35 177.519 146.771 180.94 150.99 180.94Z" fill="#00DE86"/>
<path d="M261.79 180.94C266.01 180.94 269.43 177.519 269.43 173.3C269.43 169.08 266.01 165.66 261.79 165.66C257.571 165.66 254.15 169.08 254.15 173.3C254.15 177.519 257.571 180.94 261.79 180.94Z" fill="#00DE86"/>
<path d="M206.39 238.25C157.43 238.25 144.49 211.22 143.96 210.07C142.64 207.19 143.91 203.79 146.78 202.47C149.65 201.18 153.02 202.41 154.35 205.25C154.84 206.24 165.38 226.79 206.38 226.79C246.88 226.79 254.22 206.76 254.51 205.91C255.53 202.94 258.74 201.31 261.73 202.28C264.71 203.25 266.36 206.4 265.43 209.39C265.08 210.57 255.89 238.25 206.39 238.25Z" fill="#00DE86"/>
</g>
<defs>
<clipPath id="clip0_99_2">
<rect width="1374.76" height="410.4" fill="white"/>
</clipPath>
</defs>
</svg>
