<svg width="109" height="109" viewBox="0 0 109 109" fill="none" xmlns="http://www.w3.org/2000/svg">
<path d="M67.03 108.27C64.17 108.27 61.27 107.68 58.5 106.44C55.76 105.21 53.32 103.41 51.34 101.16C48.86 103.29 45.91 104.8 42.7001 105.59C31.57 108.33 20.19 101.52 17.34 90.42C16.59 87.51 16.48 84.48 17.01 81.54C13.8 80.93 10.78 79.57 8.16004 77.55C-0.91996 70.55 -2.69995 57.42 4.20005 48.27C6.01005 45.87 8.31004 43.89 10.94 42.47C9.42004 39.58 8.60005 36.37 8.54004 33.06C8.35005 21.6 17.51 12.02 28.97 11.71C31.98 11.63 34.96 12.2 37.71 13.36C39.02 10.37 41.02 7.71997 43.57 5.61997C52.41 -1.68003 65.62 -0.480026 73 8.27997C74.94 10.58 76.35 13.26 77.16 16.14C80.32 15.3 83.63 15.21 86.86 15.89C98.08 18.26 105.38 29.32 103.13 40.55C102.54 43.5 101.32 46.28 99.58 48.7C102.21 50.65 104.34 53.18 105.82 56.13C110.97 66.38 106.86 78.98 96.68 84.23C94.01 85.61 91.07 86.39 88.09 86.53C88.21 89.8 87.55 93.04 86.1701 96.04C82.6301 103.73 74.98 108.27 67.03 108.27ZM51.77 95.03L53.18 97.05C54.94 99.56 57.34 101.54 60.13 102.79C68.59 106.59 78.64 102.82 82.53 94.39C83.91 91.39 84.3901 88.09 83.9201 84.83L83.56 82.39L86.02 82.54C89.07 82.73 92.12 82.09 94.84 80.69C103.08 76.44 106.4 66.24 102.24 57.94C100.76 54.99 98.47 52.55 95.63 50.9L93.5 49.66L95.15 47.83C97.2 45.56 98.6001 42.78 99.2001 39.78C101.02 30.69 95.11 21.73 86.03 19.82C82.8 19.14 79.47 19.4 76.4 20.6L74.1 21.49L73.7001 19.06C73.2101 16.04 71.9 13.21 69.93 10.87C63.95 3.77997 53.27 2.80998 46.11 8.71998C43.56 10.82 41.7 13.59 40.71 16.73L39.97 19.08L37.82 17.88C35.15 16.38 32.14 15.64 29.07 15.72C19.8 15.97 12.38 23.72 12.54 33C12.59 36.3 13.6 39.49 15.44 42.21L16.82 44.25L14.54 45.18C11.71 46.33 9.24003 48.23 7.40003 50.68C1.81003 58.08 3.25004 68.72 10.6 74.38C13.22 76.4 16.33 77.6 19.61 77.86L22.07 78.05L21.37 80.41C20.51 83.34 20.45 86.46 21.21 89.42C23.51 98.4 32.72 103.92 41.74 101.7C44.95 100.91 47.83 99.23 50.08 96.82L51.77 95.03Z" fill="#FFC957"/>
<path d="M39.52 48.21C40.6246 48.21 41.52 47.3145 41.52 46.21C41.52 45.1054 40.6246 44.21 39.52 44.21C38.4154 44.21 37.52 45.1054 37.52 46.21C37.52 47.3145 38.4154 48.21 39.52 48.21Z" fill="#FFC957"/>
<path d="M68.52 48.21C69.6246 48.21 70.52 47.3145 70.52 46.21C70.52 45.1054 69.6246 44.21 68.52 44.21C67.4154 44.21 66.52 45.1054 66.52 46.21C66.52 47.3145 67.4154 48.21 68.52 48.21Z" fill="#FFC957"/>
<path d="M68.02 59.21H39.02C38.19 59.21 37.52 58.54 37.52 57.71C37.52 56.88 38.19 56.21 39.02 56.21H68.02C68.85 56.21 69.52 56.88 69.52 57.71C69.52 58.54 68.85 59.21 68.02 59.21Z" fill="#FFC957"/>
</svg>
