<svg width="111" height="113" viewBox="0 0 111 113" fill="none" xmlns="http://www.w3.org/2000/svg">
<g filter="url(#filter0_dd_40_3)">
<path d="M104.03 54.84C102.32 51.43 99.71 48.76 96.64 46.97C98.86 44.52 100.47 41.46 101.17 37.97C103.19 27.87 96.53 17.78 86.45 15.65C82.72 14.86 79 15.23 75.69 16.52C75.16 13.26 73.77 10.09 71.48 7.37001C64.84 -0.509995 52.8 -1.59 44.86 4.96C41.92 7.39001 39.89 10.52 38.83 13.92C35.95 12.31 32.61 11.41 29.05 11.51C18.75 11.79 10.4 20.52 10.57 30.83C10.63 34.64 11.82 38.18 13.81 41.13C10.75 42.38 7.96998 44.43 5.81998 47.27C-0.39002 55.49 1.23998 67.47 9.39998 73.76C12.42 76.09 15.93 77.37 19.48 77.65C18.55 80.82 18.42 84.27 19.3 87.72C21.86 97.7 32.24 103.9 42.24 101.44C45.94 100.53 49.13 98.59 51.56 95.99C53.46 98.7 56.08 100.95 59.33 102.41C68.73 106.63 80.05 102.38 84.36 93.03C85.96 89.57 86.42 85.86 85.91 82.34C89.21 82.54 92.6 81.9 95.77 80.27C104.91 75.55 108.65 64.05 104.03 54.84Z" fill="#0086FF"/>
<path d="M39.52 46C40.6245 46 41.52 45.1046 41.52 44C41.52 42.8954 40.6245 42 39.52 42C38.4154 42 37.52 42.8954 37.52 44C37.52 45.1046 38.4154 46 39.52 46Z" fill="white"/>
<path d="M68.52 46C69.6245 46 70.52 45.1046 70.52 44C70.52 42.8954 69.6245 42 68.52 42C67.4154 42 66.52 42.8954 66.52 44C66.52 45.1046 67.4154 46 68.52 46Z" fill="white"/>
<path d="M68.05 51C68.05 57.83 67.05 66 53.55 66C40.05 66 39.05 57.83 39.05 51C39.05 51 46.05 53.64 53.55 53.64C61.05 53.64 68.05 51 68.05 51Z" fill="white"/>
</g>
<defs>
<filter id="filter0_dd_40_3" x="-1.9549" y="0.674805" width="111.967" height="111.369" filterUnits="userSpaceOnUse" color-interpolation-filters="sRGB">
<feFlood flood-opacity="0" result="BackgroundImageFix"/>
<feColorMatrix in="SourceAlpha" type="matrix" values="0 0 0 0 0 0 0 0 0 0 0 0 0 0 0 0 0 0 127 0" result="hardAlpha"/>
<feOffset dy="4"/>
<feGaussianBlur stdDeviation="2"/>
<feComposite in2="hardAlpha" operator="out"/>
<feColorMatrix type="matrix" values="0 0 0 0 0 0 0 0 0 0 0 0 0 0 0 0 0 0 0.25 0"/>
<feBlend mode="normal" in2="BackgroundImageFix" result="effect1_dropShadow_40_3"/>
<feColorMatrix in="SourceAlpha" type="matrix" values="0 0 0 0 0 0 0 0 0 0 0 0 0 0 0 0 0 0 127 0" result="hardAlpha"/>
<feOffset dy="4"/>
<feGaussianBlur stdDeviation="2"/>
<feComposite in2="hardAlpha" operator="out"/>
<feColorMatrix type="matrix" values="0 0 0 0 0 0 0 0 0 0 0 0 0 0 0 0 0 0 0.25 0"/>
<feBlend mode="normal" in2="effect1_dropShadow_40_3" result="effect2_dropShadow_40_3"/>
<feBlend mode="normal" in="SourceGraphic" in2="effect2_dropShadow_40_3" result="shape"/>
</filter>
</defs>
</svg>
