<svg width="46" height="47" viewBox="0 0 46 47" fill="none" xmlns="http://www.w3.org/2000/svg">
<path d="M22.6998 0.909914C18.2359 0.909914 13.8722 2.2336 10.1605 4.71363C6.44892 7.19365 3.55607 10.7184 1.8478 14.8425C0.139526 18.9667 -0.307252 23.5049 0.563617 27.8831C1.43448 32.2612 3.5839 36.2827 6.74037 39.4392C9.89684 42.5957 13.9186 44.7456 18.2968 45.6165C22.6749 46.4873 27.2129 46.0401 31.3371 44.3318C35.4612 42.6235 38.9862 39.7309 41.4662 36.0193C43.9462 32.3077 45.2699 27.9437 45.2699 23.4797C45.2712 20.5154 44.6884 17.58 43.5546 14.8411C42.4208 12.1022 40.7583 9.6139 38.6623 7.51782C36.5662 5.42174 34.0774 3.75903 31.3385 2.62525C28.5996 1.49146 25.6642 0.9086 22.6998 0.909914ZM34.9198 31.9099C34.6104 32.1487 34.219 32.2555 33.8312 32.2068C33.4434 32.1581 33.0905 31.958 32.8498 31.6501L22.6998 18.5701L12.5399 31.6501C12.2889 31.9246 11.9437 32.0943 11.5731 32.1257C11.2025 32.1572 10.8337 32.0477 10.5399 31.8196C10.2462 31.5914 10.0491 31.2612 9.98793 30.8943C9.92678 30.5274 10.006 30.1512 10.2099 29.8401L21.5299 15.26C21.6736 15.0913 21.852 14.9555 22.0531 14.8626C22.2543 14.7696 22.4734 14.7219 22.695 14.7219C22.9165 14.7219 23.1354 14.7696 23.3366 14.8626C23.5377 14.9555 23.7161 15.0913 23.8598 15.26L35.1798 29.8401C35.2954 29.9964 35.379 30.1735 35.4259 30.3621C35.4729 30.5507 35.4823 30.747 35.4535 30.9392C35.4247 31.1314 35.3584 31.3161 35.2582 31.4827C35.158 31.6492 35.026 31.7944 34.8698 31.9099H34.9198Z" fill="white"/>
</svg>
