<svg width="22" height="21" viewBox="0 0 22 21" fill="none" xmlns="http://www.w3.org/2000/svg">
<path d="M18.0496 10.0303H16.6294C16.5224 8.70178 15.9469 7.45433 15.0054 6.51099C14.0639 5.56764 12.8178 4.98966 11.4895 4.88013V3.46021C11.4731 3.3486 11.4172 3.24659 11.3318 3.17285C11.2464 3.09912 11.1372 3.05859 11.0244 3.05859C10.9116 3.05859 10.8027 3.09912 10.7173 3.17285C10.6319 3.24659 10.576 3.3486 10.5596 3.46021V4.91016C9.23092 5.02135 7.98453 5.5997 7.04175 6.54248C6.09897 7.48526 5.52062 8.73141 5.40942 10.0601H3.9895C3.8779 10.0765 3.77588 10.1326 3.70215 10.218C3.62841 10.3034 3.58789 10.4123 3.58789 10.5251C3.58789 10.638 3.62841 10.7469 3.70215 10.8323C3.77588 10.9176 3.8779 10.9738 3.9895 10.9902H5.40942C5.52092 12.3178 6.09952 13.5628 7.04248 14.5039C7.98544 15.445 9.23178 16.0212 10.5596 16.1301V17.55C10.5498 17.6168 10.5544 17.6849 10.5732 17.7498C10.5921 17.8146 10.6246 17.8747 10.6687 17.9258C10.7128 17.9769 10.7675 18.0178 10.8289 18.0459C10.8902 18.074 10.9569 18.0886 11.0244 18.0886C11.0919 18.0886 11.1586 18.074 11.22 18.0459C11.2813 18.0178 11.336 17.9769 11.3801 17.9258C11.4242 17.8747 11.457 17.8146 11.4758 17.7498C11.4947 17.6849 11.4993 17.6168 11.4895 17.55V16.1301C12.8169 16.0229 14.063 15.4468 15.0046 14.5051C15.9463 13.5634 16.5221 12.3177 16.6294 10.9902H18.0496C18.1163 11.0001 18.1845 10.9952 18.2493 10.9763C18.3141 10.9575 18.374 10.925 18.425 10.8809C18.4761 10.8367 18.5171 10.7821 18.5452 10.7207C18.5733 10.6593 18.5879 10.5926 18.5879 10.5251C18.5879 10.4576 18.5733 10.391 18.5452 10.3296C18.5171 10.2682 18.4761 10.2136 18.425 10.1694C18.374 10.1253 18.3141 10.0928 18.2493 10.074C18.1845 10.0551 18.1163 10.0502 18.0496 10.0601V10.0303ZM13.3293 10.9602H15.6294C15.5201 12.0209 15.0489 13.0116 14.2949 13.7656C13.5409 14.5196 12.5502 14.9908 11.4895 15.1001V12.8C11.4993 12.7333 11.4947 12.6652 11.4758 12.6003C11.457 12.5355 11.4242 12.4756 11.3801 12.4246C11.336 12.3735 11.2813 12.3325 11.22 12.3044C11.1586 12.2764 11.0919 12.2617 11.0244 12.2617C10.9569 12.2617 10.8902 12.2764 10.8289 12.3044C10.7675 12.3325 10.7128 12.3735 10.6687 12.4246C10.6246 12.4756 10.5921 12.5355 10.5732 12.6003C10.5544 12.6652 10.5498 12.7333 10.5596 12.8V15.1001C9.49707 14.993 8.50382 14.5228 7.7478 13.7686C6.99178 13.0144 6.51911 12.0224 6.40942 10.9602H8.69946C8.81107 10.9438 8.91308 10.8879 8.98682 10.8025C9.06055 10.7171 9.10107 10.6079 9.10107 10.4951C9.10107 10.3823 9.06055 10.2734 8.98682 10.188C8.91308 10.1026 8.81107 10.0467 8.69946 10.0303H6.3894C6.49692 8.96624 6.96888 7.97179 7.7251 7.21558C8.48132 6.45936 9.47551 5.98765 10.5396 5.88013V8.19019C10.556 8.30179 10.6119 8.4038 10.6973 8.47754C10.7826 8.55127 10.8916 8.5918 11.0044 8.5918C11.1172 8.5918 11.2264 8.55127 11.3118 8.47754C11.3971 8.4038 11.4531 8.30179 11.4695 8.19019V5.91016C12.5317 6.01984 13.5236 6.49251 14.2778 7.24854C15.032 8.00456 15.5023 8.99756 15.6094 10.0601H13.3096C13.2428 10.0502 13.1747 10.0551 13.1099 10.074C13.0451 10.0928 12.9849 10.1253 12.9338 10.1694C12.8828 10.2136 12.8418 10.2682 12.8137 10.3296C12.7856 10.391 12.771 10.4576 12.771 10.5251C12.771 10.5926 12.7856 10.6593 12.8137 10.7207C12.8418 10.7821 12.8828 10.8367 12.9338 10.8809C12.9849 10.925 13.0451 10.9575 13.1099 10.9763C13.1747 10.9952 13.2428 11.0001 13.3096 10.9902L13.3293 10.9602Z" fill="#4D4D4D"/>
<path d="M18.2297 0.460205H3.81982C2.25686 0.460205 0.989746 1.72707 0.989746 3.29004V17.7002C0.989746 19.2632 2.25686 20.53 3.81982 20.53H18.2297C19.7927 20.53 21.0598 19.2632 21.0598 17.7002V3.29004C21.0598 1.72707 19.7927 0.460205 18.2297 0.460205Z" stroke="#B3B3B3" stroke-width="0.5" stroke-miterlimit="10"/>
</svg>
