<svg width="105" height="116" viewBox="0 0 105 116" fill="none" xmlns="http://www.w3.org/2000/svg">
<path d="M102.03 65.84C100.32 62.43 97.71 59.76 94.64 57.97C96.86 55.52 98.47 52.46 99.17 48.97C101.19 38.87 94.53 28.78 84.45 26.65C80.72 25.86 77 26.23 73.69 27.52C73.16 24.26 71.77 21.09 69.48 18.37C62.84 10.49 50.8 9.41 42.86 15.96C39.92 18.39 37.89 21.52 36.83 24.92C33.95 23.31 30.61 22.41 27.05 22.51C16.75 22.79 8.40003 31.52 8.57003 41.83C8.63003 45.64 9.82002 49.18 11.81 52.13C8.75002 53.38 5.97003 55.43 3.82003 58.27C-2.38997 66.49 -0.759948 78.47 7.40005 84.76C10.4201 87.09 13.93 88.37 17.48 88.65C16.55 91.82 16.42 95.27 17.3 98.72C19.86 108.7 30.24 114.9 40.24 112.44C43.94 111.53 47.13 109.59 49.56 106.99C51.46 109.7 54.08 111.95 57.33 113.41C66.73 117.63 78.05 113.38 82.36 104.03C83.96 100.57 84.42 96.86 83.91 93.34C87.21 93.54 90.6001 92.9 93.7701 91.27C102.91 86.55 106.65 75.05 102.03 65.84Z" fill="#824F88"/>
<path d="M23.52 12C24.6246 12 25.52 11.1046 25.52 10C25.52 8.89543 24.6246 8 23.52 8C22.4154 8 21.52 8.89543 21.52 10C21.52 11.1046 22.4154 12 23.52 12Z" fill="#824F88"/>
<path d="M80.02 7C81.953 7 83.52 5.433 83.52 3.5C83.52 1.567 81.953 0 80.02 0C78.087 0 76.52 1.567 76.52 3.5C76.52 5.433 78.087 7 80.02 7Z" fill="#824F88"/>
<path d="M79.02 23C80.4007 23 81.52 21.8807 81.52 20.5C81.52 19.1193 80.4007 18 79.02 18C77.6393 18 76.52 19.1193 76.52 20.5C76.52 21.8807 77.6393 23 79.02 23Z" fill="#824F88"/>
<path d="M4.37 47.23C5.75071 47.23 6.87 46.1107 6.87 44.73C6.87 43.3493 5.75071 42.23 4.37 42.23C2.98928 42.23 1.87 43.3493 1.87 44.73C1.87 46.1107 2.98928 47.23 4.37 47.23Z" fill="#824F88"/>
<path d="M97 20.5C98.3807 20.5 99.5 19.3807 99.5 18C99.5 16.6193 98.3807 15.5 97 15.5C95.6193 15.5 94.5 16.6193 94.5 18C94.5 19.3807 95.6193 20.5 97 20.5Z" fill="#824F88"/>
<path d="M97 105.39C98.3807 105.39 99.5 104.271 99.5 102.89C99.5 101.509 98.3807 100.39 97 100.39C95.6193 100.39 94.5 101.509 94.5 102.89C94.5 104.271 95.6193 105.39 97 105.39Z" fill="#824F88"/>
<path d="M45.59 50.65C45.59 53.92 42.94 57.61 39.66 57.61C36.38 57.61 33.73 55.42 33.73 52.15C33.73 48.88 36.38 44.73 39.66 44.73C42.94 44.73 45.59 47.38 45.59 50.65Z" fill="white"/>
<path d="M58.46 50.65C58.46 53.92 61.11 57.61 64.39 57.61C67.67 57.61 70.32 55.42 70.32 52.15C70.32 48.88 67.67 44.73 64.39 44.73C61.11 44.73 58.46 47.38 58.46 50.65Z" fill="white"/>
<path d="M52.02 56.4C44.62 56.4 38.63 62.94 38.63 71C38.63 79.07 44.63 85.6 52.02 85.6C59.42 85.6 65.41 79.06 65.41 71C65.41 62.94 59.42 56.4 52.02 56.4ZM58.3 63.87C59.51 63.11 61.05 63.56 61.75 64.88C62.45 66.2 62.03 67.88 60.83 68.64C59.62 69.4 58.08 68.95 57.38 67.63C56.68 66.32 57.09 64.63 58.3 63.87ZM45.74 78.13C44.53 78.89 42.99 78.44 42.29 77.12C41.59 75.8 42.01 74.12 43.21 73.36C44.42 72.6 45.96 73.05 46.66 74.37C47.36 75.69 46.95 77.37 45.74 78.13ZM46.67 67.63C45.97 68.95 44.43 69.4 43.22 68.64C42.01 67.88 41.6 66.2 42.3 64.88C43 63.56 44.54 63.11 45.75 63.87C46.95 64.63 47.36 66.32 46.67 67.63ZM52.02 83.25C50.63 83.25 49.5 82.02 49.5 80.5C49.5 78.98 50.63 77.75 52.02 77.75C53.41 77.75 54.54 78.98 54.54 80.5C54.54 82.01 53.41 83.25 52.02 83.25ZM52.02 64.26C50.63 64.26 49.5 63.03 49.5 61.51C49.5 59.99 50.63 58.76 52.02 58.76C53.41 58.76 54.54 59.99 54.54 61.51C54.54 63.03 53.41 64.26 52.02 64.26ZM61.74 77.12C61.04 78.44 59.5 78.89 58.29 78.13C57.08 77.37 56.67 75.69 57.37 74.37C58.07 73.05 59.61 72.6 60.82 73.36C62.03 74.12 62.44 75.81 61.74 77.12Z" fill="white"/>
<path d="M40.97 69.54H30.11V72.46H40.97V69.54Z" fill="white"/>
<path d="M73.93 69.54H63.07V72.46H73.93V69.54Z" fill="white"/>
</svg>
