<svg width="110" height="118" viewBox="0 0 110 118" fill="none" xmlns="http://www.w3.org/2000/svg">
<path d="M68.03 117.27C65.17 117.27 62.27 116.68 59.5 115.44C56.76 114.21 54.32 112.41 52.34 110.16C49.86 112.29 46.91 113.8 43.7 114.59C32.57 117.33 21.19 110.52 18.34 99.4201C17.59 96.51 17.48 93.48 18.01 90.54C14.8 89.93 11.78 88.57 9.15996 86.55C0.0799599 79.55 -1.7 66.42 5.2 57.27C7.01 54.87 9.30999 52.89 11.94 51.47C10.42 48.58 9.59997 45.37 9.53996 42.06C9.34997 30.6 18.51 21.02 29.97 20.71C32.97 20.63 35.96 21.2 38.71 22.36C40.02 19.37 42.02 16.72 44.57 14.62C53.41 7.32003 66.62 8.52003 74 17.28C75.94 19.58 77.35 22.26 78.16 25.14C81.32 24.3 84.63 24.21 87.86 24.89C99.08 27.26 106.38 38.32 104.13 49.55C103.54 52.5 102.32 55.28 100.58 57.7C103.21 59.65 105.34 62.18 106.82 65.13C111.97 75.38 107.86 87.98 97.68 93.23C95.01 94.61 92.07 95.39 89.09 95.53C89.21 98.8 88.55 102.04 87.17 105.04C83.63 112.73 75.98 117.27 68.03 117.27ZM52.77 104.03L54.18 106.05C55.94 108.56 58.34 110.54 61.13 111.79C69.59 115.59 79.64 111.82 83.53 103.39C84.91 100.39 85.39 97.09 84.92 93.83L84.56 91.3901L87.02 91.54C90.07 91.73 93.12 91.09 95.84 89.69C104.08 85.44 107.4 75.24 103.24 66.94C101.76 63.99 99.47 61.55 96.63 59.9L94.5 58.66L96.15 56.83C98.2 54.56 99.6 51.78 100.2 48.78C102.02 39.69 96.11 30.73 87.03 28.82C83.8 28.14 80.47 28.4 77.4 29.6L75.1 30.49L74.7 28.06C74.21 25.04 72.9 22.21 70.93 19.87C64.96 12.78 54.27 11.81 47.11 17.72C44.56 19.82 42.7 22.59 41.71 25.73L40.97 28.08L38.82 26.88C36.15 25.38 33.14 24.64 30.07 24.72C20.8 24.97 13.38 32.72 13.54 42C13.59 45.3 14.6 48.49 16.44 51.21L17.82 53.25L15.54 54.18C12.71 55.33 10.24 57.23 8.40001 59.68C2.81001 67.08 4.24996 77.72 11.6 83.38C14.22 85.4 17.33 86.6 20.61 86.86L23.07 87.05L22.37 89.41C21.51 92.34 21.45 95.4601 22.21 98.4201C24.51 107.4 33.72 112.92 42.74 110.7C45.95 109.91 48.83 108.23 51.08 105.82L52.77 104.03Z" fill="#824F88"/>
<path d="M26.52 12.21C27.6246 12.21 28.52 11.3146 28.52 10.21C28.52 9.10545 27.6246 8.21002 26.52 8.21002C25.4154 8.21002 24.52 9.10545 24.52 10.21C24.52 11.3146 25.4154 12.21 26.52 12.21Z" fill="#824F88"/>
<path d="M83.02 7.21002C84.953 7.21002 86.52 5.64302 86.52 3.71002C86.52 1.77703 84.953 0.210022 83.02 0.210022C81.087 0.210022 79.52 1.77703 79.52 3.71002C79.52 5.64302 81.087 7.21002 83.02 7.21002Z" fill="#824F88"/>
<path d="M86.52 18.21C87.9007 18.21 89.02 17.0907 89.02 15.71C89.02 14.3293 87.9007 13.21 86.52 13.21C85.1393 13.21 84.02 14.3293 84.02 15.71C84.02 17.0907 85.1393 18.21 86.52 18.21Z" fill="#824F88"/>
<path d="M3.03003 46.17C4.41074 46.17 5.53003 45.0508 5.53003 43.67C5.53003 42.2893 4.41074 41.17 3.03003 41.17C1.64932 41.17 0.530029 42.2893 0.530029 43.67C0.530029 45.0508 1.64932 46.17 3.03003 46.17Z" fill="#824F88"/>
<path d="M100 20.71C101.381 20.71 102.5 19.5907 102.5 18.21C102.5 16.8293 101.381 15.71 100 15.71C98.6193 15.71 97.5 16.8293 97.5 18.21C97.5 19.5907 98.6193 20.71 100 20.71Z" fill="#824F88"/>
<path d="M100 105.6C101.381 105.6 102.5 104.481 102.5 103.1C102.5 101.719 101.381 100.6 100 100.6C98.6193 100.6 97.5 101.719 97.5 103.1C97.5 104.481 98.6193 105.6 100 105.6Z" fill="#824F88"/>
<path d="M48.59 50.87C48.59 54.14 45.94 57.83 42.66 57.83C39.38 57.83 36.73 55.64 36.73 52.37C36.73 49.1 39.38 44.95 42.66 44.95C45.94 44.95 48.59 47.6 48.59 50.87Z" fill="#824F88"/>
<path d="M61.46 50.87C61.46 54.14 64.11 57.83 67.39 57.83C70.67 57.83 73.32 55.64 73.32 52.37C73.32 49.1 70.67 44.95 67.39 44.95C64.11 44.95 61.46 47.6 61.46 50.87Z" fill="#824F88"/>
<path d="M76.94 69.76H68.35C67.68 62.38 61.97 56.61 55.03 56.61C48.09 56.61 42.38 62.38 41.71 69.76H33.12V72.68H41.71C42.38 80.06 48.09 85.83 55.03 85.83C61.97 85.83 67.68 80.06 68.35 72.68H76.94V69.76ZM48.74 78.35C47.53 79.11 45.99 78.66 45.29 77.34C44.59 76.02 45.01 74.34 46.21 73.58C47.42 72.82 48.96 73.27 49.66 74.59C50.36 75.9 49.95 77.59 48.74 78.35ZM49.67 67.85C48.97 69.17 47.43 69.62 46.22 68.86C45.01 68.1 44.6 66.42 45.3 65.1C46 63.78 47.54 63.33 48.75 64.09C49.95 64.85 50.36 66.53 49.67 67.85ZM55.02 83.46C53.63 83.46 52.5 82.23 52.5 80.71C52.5 79.19 53.63 77.96 55.02 77.96C56.41 77.96 57.54 79.19 57.54 80.71C57.54 82.23 56.41 83.46 55.02 83.46ZM55.02 64.48C53.63 64.48 52.5 63.25 52.5 61.73C52.5 60.21 53.63 58.98 55.02 58.98C56.41 58.98 57.54 60.21 57.54 61.73C57.54 63.25 56.41 64.48 55.02 64.48ZM64.74 77.34C64.04 78.66 62.5 79.11 61.29 78.35C60.08 77.59 59.67 75.91 60.37 74.59C61.07 73.27 62.61 72.82 63.82 73.58C65.03 74.34 65.44 76.02 64.74 77.34ZM63.82 68.85C62.61 69.61 61.07 69.16 60.37 67.84C59.67 66.52 60.09 64.84 61.29 64.08C62.5 63.32 64.04 63.77 64.74 65.09C65.44 66.41 65.03 68.09 63.82 68.85Z" fill="#824F88"/>
</svg>
