<svg width="105" height="105" viewBox="0 0 105 105" fill="none" xmlns="http://www.w3.org/2000/svg">
<path d="M102.03 54.84C100.32 51.43 97.71 48.76 94.64 46.97C96.86 44.52 98.47 41.46 99.17 37.97C101.19 27.87 94.53 17.78 84.45 15.65C80.72 14.86 77 15.23 73.69 16.52C73.16 13.26 71.77 10.09 69.48 7.37001C62.84 -0.509995 50.8 -1.59 42.86 4.96C39.92 7.39001 37.89 10.52 36.83 13.92C33.95 12.31 30.61 11.41 27.05 11.51C16.75 11.79 8.39998 20.52 8.56998 30.83C8.62998 34.64 9.81998 38.18 11.81 41.13C8.74998 42.38 5.96998 44.43 3.81998 47.27C-2.39002 55.49 -0.760021 67.47 7.39998 73.76C10.42 76.09 13.93 77.37 17.48 77.65C16.55 80.82 16.42 84.27 17.3 87.72C19.86 97.7 30.24 103.9 40.24 101.44C43.94 100.53 47.13 98.59 49.56 95.99C51.46 98.7 54.08 100.95 57.33 102.41C66.73 106.63 78.05 102.38 82.36 93.03C83.96 89.57 84.42 85.86 83.91 82.34C87.21 82.54 90.6 81.9 93.77 80.27C102.91 75.55 106.65 64.05 102.03 54.84Z" fill="#0086FF"/>
<path d="M37.52 46C38.6245 46 39.52 45.1046 39.52 44C39.52 42.8954 38.6245 42 37.52 42C36.4154 42 35.52 42.8954 35.52 44C35.52 45.1046 36.4154 46 37.52 46Z" fill="white"/>
<path d="M66.52 46C67.6245 46 68.52 45.1046 68.52 44C68.52 42.8954 67.6245 42 66.52 42C65.4154 42 64.52 42.8954 64.52 44C64.52 45.1046 65.4154 46 66.52 46Z" fill="white"/>
<path d="M66.05 51C66.05 57.83 65.05 66 51.55 66C38.05 66 37.05 57.83 37.05 51C37.05 51 44.05 53.64 51.55 53.64C59.05 53.64 66.05 51 66.05 51Z" fill="white"/>
</svg>
