<svg width="74" height="74" viewBox="0 0 74 74" fill="none" xmlns="http://www.w3.org/2000/svg">
<path d="M69.5448 16.8704C69.9921 16.8319 70.4394 16.9405 70.8193 17.1797C71.1991 17.4189 71.4906 17.7756 71.6491 18.1956C71.8076 18.6156 71.8246 19.0756 71.6974 19.5061C71.5703 19.9366 71.3059 20.3139 70.9447 20.5804C69.2747 21.9404 66.2947 22.9104 64.4447 24.1504C63.9992 24.2854 63.5211 24.2654 63.0883 24.0938C62.6555 23.9222 62.2937 23.609 62.0617 23.2054C61.8297 22.8017 61.7411 22.3312 61.8107 21.8709C61.8803 21.4106 62.1038 20.9875 62.4447 20.6705C64.3847 19.6705 66.2247 18.4305 68.1847 17.4905C68.6131 17.2329 69.0695 17.0248 69.5448 16.8704Z" fill="#E6E6E6"/>
<path d="M3.70518 16.8701C4.01167 16.8724 4.31436 16.937 4.59508 17.0601C6.83821 18.0963 9.00379 19.2928 11.0751 20.6401C11.5104 20.9169 11.822 21.351 11.9447 21.8521C12.0674 22.3531 11.9919 22.8823 11.7337 23.3289C11.4756 23.7755 11.0548 24.1051 10.5594 24.2488C10.064 24.3925 9.53214 24.3392 9.07506 24.1001C7.26506 22.8501 4.32516 21.9101 2.68516 20.5701C2.31779 20.3425 2.03405 20.0022 1.87633 19.5999C1.7186 19.1975 1.69532 18.755 1.81016 18.3384C1.92501 17.9218 2.17169 17.5535 2.51329 17.2888C2.85489 17.0241 3.27311 16.8773 3.70518 16.8701Z" fill="#E6E6E6"/>
<path d="M17.785 4.54007C18.1356 4.4452 18.5047 4.44436 18.8558 4.53739C19.2069 4.63042 19.5274 4.81408 19.785 5.0701C21.1408 6.98794 22.3701 8.9922 23.4649 11.0701C23.7462 11.4748 23.8683 11.9691 23.8075 12.4583C23.7466 12.9474 23.5072 13.397 23.1353 13.7205C22.7635 14.044 22.2852 14.2189 21.7923 14.2115C21.2995 14.204 20.8268 14.0148 20.4649 13.6802C19.0419 11.7816 17.768 9.77562 16.6549 7.68021C16.0149 6.44021 16.305 4.87007 17.785 4.54007Z" fill="#E6E6E6"/>
<path d="M54.735 4.54003C56.785 4.11003 57.865 5.94 56.955 7.76C55.9769 9.65082 54.8639 11.469 53.6249 13.2002C53.3902 13.6829 52.9735 14.0524 52.4662 14.2278C51.959 14.4031 51.4028 14.3697 50.9201 14.135C50.4374 13.9003 50.0676 13.4836 49.8923 12.9763C49.7169 12.469 49.7503 11.9129 49.985 11.4302C51.225 9.58017 52.285 7.02006 53.645 5.32006C53.9078 4.94243 54.2928 4.66692 54.735 4.54003Z" fill="#E6E6E6"/>
<path d="M38.1946 10.2002C37.9254 10.4279 37.603 10.5837 37.2573 10.6533C36.9117 10.7229 36.5541 10.7039 36.2178 10.5981C35.8815 10.4924 35.5773 10.3033 35.3338 10.0483C35.0902 9.79341 34.9149 9.48095 34.8245 9.14014C34.6444 6.76354 34.6444 4.3766 34.8245 2C34.8245 1.46957 35.0353 0.96101 35.4104 0.585938C35.7855 0.210865 36.2941 0 36.8245 0C37.3549 0 37.8637 0.210865 38.2388 0.585938C38.6139 0.96101 38.8245 1.46957 38.8245 2C38.9996 4.29333 38.9996 6.59681 38.8245 8.89014C38.7638 9.38405 38.5425 9.84439 38.1946 10.2002Z" fill="#E6E6E6"/>
<path d="M1.58476 73.9403C1.0858 73.7968 0.654065 73.4807 0.366502 73.0484C0.0789396 72.6162 -0.0455705 72.0958 0.0149397 71.5802L3.90483 61.6703C4.90483 59.9803 8.12476 60.9703 9.83476 60.6703L14.5948 27.1703C15.2235 24.8694 16.5349 22.8132 18.3558 21.2726C20.1766 19.732 22.4218 18.7792 24.795 18.5401C32.605 19.0801 41.3748 17.8201 49.0748 18.5401C51.5378 18.8525 53.8401 19.9326 55.6548 21.6271C57.4695 23.3215 58.7047 25.5444 59.1849 27.9803L63.7049 60.6302C65.3049 60.9002 68.4149 60.0202 69.5149 61.3602L73.6048 71.2801V72.2801C73.4767 72.6451 73.2682 72.9766 72.9947 73.2501C72.7212 73.5236 72.3899 73.7321 72.0249 73.8602L1.58476 73.9403ZM59.5149 60.7103L54.9449 27.9703C54.4612 26.4427 53.5119 25.1043 52.2298 24.1432C50.9476 23.182 49.397 22.6461 47.795 22.6102C40.555 22.1402 32.7949 22.9702 25.5149 22.6102C23.65 22.7251 21.8891 23.5098 20.5569 24.8199C19.2247 26.1301 18.4109 27.8776 18.2649 29.7403L14.0748 60.7403L59.5149 60.7103ZM5.17485 69.9103H68.4349L66.5748 64.8302L66.3548 64.7303H7.14482L5.17485 69.9103Z" fill="#E6E6E6"/>
<path d="M39.8247 30.0903C39.9847 35.6803 39.2447 41.2203 38.8247 46.7703H34.8247L33.8247 35.3403V30.0903H39.8247Z" fill="#E6E6E6"/>
<path d="M36.8047 55.2505C38.4836 55.2505 39.8447 53.8894 39.8447 52.2104C39.8447 50.5315 38.4836 49.1704 36.8047 49.1704C35.1257 49.1704 33.7646 50.5315 33.7646 52.2104C33.7646 53.8894 35.1257 55.2505 36.8047 55.2505Z" fill="#E6E6E6"/>
</svg>
