<svg width="791" height="234" viewBox="0 0 791 234" fill="none" xmlns="http://www.w3.org/2000/svg">
<path d="M568.99 52.863C565.702 52.7437 562.369 52.2327 559.137 52.5904C551.896 53.3854 544.706 54.6289 537.494 55.6567C536.148 55.8498 534.637 56.2927 533.467 55.8725C532.309 55.4523 530.673 54.1009 530.662 53.1355C530.599 49.2231 530.69 45.2199 531.474 41.4097C532.303 37.4121 534.223 36.5661 538.34 36.3105C544.155 35.9471 549.954 35.2884 555.758 34.7547C568.525 33.5792 581.11 34.3401 593.485 37.9516C598.051 39.286 599.198 41.0066 598.073 45.6515C595.614 55.7873 591.395 64.8841 583.319 71.8855C580.701 74.1512 581.104 74.9518 583.609 77.4503C589.112 82.9583 594.49 88.6026 599.726 94.3662C603.065 98.0401 601.708 102.134 599.755 105.888C597.858 109.539 594.53 111.163 590.441 111.299C585.187 111.475 581.723 108.153 578.384 104.894C575.635 102.208 573.426 98.9883 570.802 96.1662C565.765 90.7434 560.125 89.3067 553.6 92.7592C548.58 95.4167 544.161 99.2098 539.482 102.503C537.948 103.582 536.523 104.877 534.876 105.729C532.042 107.199 529.549 106.279 528.322 103.395C524.778 95.0362 525.346 86.8764 530.497 79.4377C532.042 77.2061 534.751 75.2073 537.341 74.3726C545.768 71.6584 553.004 67.0873 559.716 61.5055C562.863 58.8877 565.992 56.253 569.132 53.6296C569.087 53.374 569.042 53.1185 568.99 52.863Z" fill="white"/>
<path d="M568.337 138.004C573.63 137.715 578.6 137.516 583.558 137.158C601.356 135.881 619.155 134.552 636.947 133.252C638.827 133.115 640.724 133.121 642.604 132.934C644.927 132.695 646.233 133.939 646.801 135.915C648.51 141.888 648.868 147.845 646.727 153.87C645.614 156.999 643.581 158.373 640.429 158.56C628.605 159.264 616.792 160.161 604.962 160.672C588.76 161.371 572.551 161.791 556.343 162.302C554.889 162.348 553.413 162.285 551.976 162.075C547.342 161.388 545.235 159.247 544.973 154.676C544.377 144.398 543.883 134.109 543.394 123.82C543.207 119.868 544.951 116.472 546.893 113.224C547.33 112.497 548.528 111.861 549.403 111.821C553.259 111.657 557.127 111.679 560.989 111.731C563.294 111.759 564.765 112.645 565.072 115.308C565.731 121.1 566.662 126.858 567.497 132.627C567.73 134.313 568.019 135.994 568.337 138.004Z" fill="white"/>
<path d="M639.588 110.981C639.276 114.82 638.259 115.694 634.324 115.66C628.315 115.615 622.312 115.501 616.304 115.376C612.885 115.308 611.715 114.661 611.579 111.339C611.232 102.878 611.136 94.3945 611.243 85.9281C611.465 68.0867 611.959 50.2509 612.158 32.4095C612.215 27.4296 614.469 23.5285 619.297 22.0692C625.561 20.1783 631.91 19.9966 637.884 22.8812C641.195 24.4825 643.035 28.0371 643.229 31.3874C643.706 39.5869 643.382 47.8376 643.382 56.0656C643.586 56.0769 641.082 92.6853 639.588 110.981Z" fill="white"/>
<path d="M719.534 165.919C710.282 166.998 701.19 165.783 692.194 163.818C684.999 162.245 678.644 159.009 673.834 153.211C671.704 150.65 670.261 147.873 670.199 144.381C669.932 129.975 676.173 121.458 692.041 116.262C703.235 112.594 714.82 112.054 726.411 113.576C735.748 114.803 745.067 116.347 754.256 118.38C760.191 119.692 765.149 122.962 767.273 129.271C770.22 138.027 767.642 146.84 760.498 152.598C753.2 158.481 745.459 163.551 735.969 164.852C730.54 165.596 725.014 165.59 719.534 165.919ZM721.76 127.863C716.632 127.863 712.685 127.903 708.743 127.851C705.455 127.806 703.11 129.197 701.889 132.241C701.162 134.058 700.497 135.937 700.105 137.845C699.538 140.599 700.787 142.82 703.439 143.751C705.285 144.398 707.233 144.921 709.175 145.085C717.626 145.806 726.088 146.431 734.55 146.982C739.49 147.306 743.369 143.546 743.966 138.067C744.488 133.263 741.949 129.987 736.702 129.294C731.358 128.59 725.963 128.255 721.76 127.863Z" fill="white"/>
<path d="M682.676 43.9082C682.676 38.5478 680.853 34.6241 682.392 26.6346C683.937 18.6508 703.945 14.8747 700.577 40.5977C700.049 44.6407 700.316 44.8167 704.405 45.5606C707.698 46.1625 720.823 43.6924 724.162 43.806C726.877 43.8969 728.32 45.2824 728.853 47.5991C729.489 50.3872 730.069 53.2548 730.114 56.0997C730.177 60.0064 714.247 65.2929 714.059 68.4104C713.775 73.1802 726.196 78.7961 731.364 80.6302C736.344 82.3962 737.196 84.4177 734.215 88.7276C729.802 95.11 728.66 97.6312 723.947 103.798C722.067 106.262 720.204 106.614 717.722 104.667C713.889 101.657 710.339 98.2786 706.761 94.9567C705.58 93.8608 701.44 92.8217 700.764 93.5882C696.113 98.8237 691.439 104.036 686.686 109.187C682.25 113.996 679.229 114.348 673.47 111.174C671.21 109.931 668.773 109.016 666.456 107.869C662.612 105.967 661.782 104.082 664.23 100.601C668.302 94.8091 672.681 89.2045 677.252 83.7931C681.194 79.1254 685.578 74.8269 690.167 69.9435C688.935 69.6937 688.174 69.4779 687.395 69.3984C679.189 68.5921 670.983 67.7403 662.765 67.0362C657.455 66.5819 653.349 64.0834 650.1 60.0348C646.028 54.964 648.868 44.1978 654.95 42.0514C656.382 41.546 658.148 41.7731 659.732 41.9435C665.241 42.5284 670.721 43.3688 676.236 43.823C677.985 43.965 680.069 44.4136 682.676 43.9082Z" fill="white"/>
<path d="M745.925 67.8596C746.351 56.9515 746.783 46.0434 747.191 35.1352C747.339 31.132 748.986 28.6165 752.365 27.0379C755.983 25.3514 759.634 24.8744 763.434 25.147C768.693 25.5161 771.811 29.5931 771.862 35.4873C771.901 40.2117 772.367 44.9361 772.628 49.6605C772.753 51.8921 773.889 52.9369 775.758 53.1243C779.176 53.465 782.595 53.7262 786.009 54.1294C789.28 54.5155 790.972 56.1395 790.995 59.8418C791.018 63.3453 790.421 66.8886 789.853 70.3638C789.263 73.9639 786.923 75.4176 783.873 75.5141C780.96 75.6106 778.035 75.7242 775.127 75.5311C772.901 75.3835 772.168 76.1103 772.18 78.728C772.202 85.7806 771.998 92.8331 771.742 99.88C771.572 104.621 770.385 105.785 766.188 105.791C762.241 105.797 758.294 105.802 754.353 105.683C749.423 105.536 746.169 101.822 746.146 96.2912C746.101 86.8197 746.135 77.3425 746.135 67.871C746.067 67.871 745.999 67.8653 745.925 67.8596Z" fill="white"/>
<path d="M308.959 34.289C313.201 34.3572 317.449 34.5673 321.668 34.9704C329.858 35.7427 333.271 38.8317 334.555 46.8723C335.389 52.1134 334.06 81.8737 330.971 91.0784C329.585 95.2065 328.086 99.3234 326.303 103.293C324.457 107.398 321.288 109.777 316.699 111.015C309.702 112.9 302.768 112.463 295.845 111.589C287.946 110.589 280.08 109.209 272.277 107.614C266.138 106.359 261.89 101.407 261.753 95.0987C261.526 84.8208 261.691 74.5316 261.878 64.2481C262.049 54.9924 262.52 45.7423 262.764 36.4866C262.849 33.159 262.73 33.1988 265.979 33.2101C273.231 33.2385 280.489 33.2215 287.741 33.2215C287.866 33.2215 302.013 34.1811 308.959 34.289ZM285.14 79.3525C285.191 81.4138 286.367 82.8107 288.479 82.9299C292.495 83.1514 296.538 83.4637 300.536 83.2138C303.631 83.0208 306.363 80.2781 306.534 77.649C306.994 70.4148 306.636 63.243 304.353 56.2643C303.859 54.7539 303.047 54.3507 301.513 54.5097C296.646 55.0151 291.768 55.4353 286.889 55.7816C285.373 55.8895 284.777 56.446 284.816 57.9849C284.896 61.1647 285.049 75.4118 285.14 79.3525Z" fill="white"/>
<path d="M283.385 171.677C280.534 171.722 277.587 171.126 274.832 170.309C272.419 169.587 270.795 167.645 270.658 164.948C269.926 150.889 269.341 136.823 268.483 122.775C268.245 118.811 270.488 116.955 273.572 116.603C278.728 116.012 283.993 116.273 289.212 116.29C291.376 116.296 292.29 117.693 292.563 119.771C293.517 127 294.585 134.211 295.556 141.44C296.027 144.955 295.982 145.028 299.452 144.807C320.953 143.433 342.454 142.047 363.95 140.616C368.573 140.31 373.179 139.838 377.79 139.39C380.011 139.174 381.493 140.128 382.146 142.167C384.577 149.776 384.878 157.339 381.198 164.687C379.988 167.1 377.529 167.344 375.212 167.498C366.647 168.054 358.078 168.594 349.502 169.031C334.935 169.769 290.848 171.563 283.385 171.677Z" fill="white"/>
<path d="M361.088 85.3262C358.197 85.6555 355.67 85.9508 353.142 86.229C352.291 86.3256 351.433 86.4164 350.581 86.4675C342.386 86.9445 338.973 83.5432 339.41 75.3266C339.683 70.2217 341.869 65.8891 345.197 62.1641C345.958 61.318 347.389 60.7899 348.576 60.6537C352.381 60.2221 356.215 60.0404 360.344 59.7394C360.344 59.0751 360.355 58.2404 360.344 57.4113C360.236 49.6887 360.327 41.9605 359.946 34.2493C359.673 28.7185 363.887 24.7834 369.209 25.0957C374.428 25.4024 379.232 26.7652 383.055 30.3369C384.332 31.5293 385.383 33.7041 385.377 35.419C385.275 57.5533 384.974 79.6932 384.667 101.827C384.645 103.616 384.321 105.422 383.929 107.171C382.146 115.058 375.893 118.613 367.107 116.801C366.437 116.665 365.767 116.495 365.108 116.307C361.763 115.336 361.105 114.496 361.093 111.032C361.076 103.48 361.088 95.9277 361.088 88.3754C361.088 87.4612 361.088 86.5413 361.088 85.3262Z" fill="white"/>
<path d="M400.075 32.8694C401.194 32.7161 402.534 32.364 403.869 32.3697C415.199 32.3981 426.54 32.222 437.859 32.6706C444.162 32.9205 450.478 33.9653 456.685 35.1805C462.046 36.231 465.022 40.132 464.681 45.6343C463.875 58.723 462.716 71.7946 461.7 84.8718C461.649 85.5589 461.614 86.2403 461.535 86.9217C460.484 95.7743 454.368 102.293 445.9 103.684C442.067 104.315 438.097 104.315 434.195 104.241C427.42 104.122 420.622 103.241 413.875 103.565C406.39 103.928 398.604 95.0191 398.598 89.0682C398.593 79.8124 398.553 70.5567 398.797 61.3123C399.041 51.9884 399.621 42.6589 400.075 32.8694ZM419.907 53.6068C419.907 60.841 419.867 67.7686 419.929 74.6905C419.952 76.9732 421.491 78.1203 423.581 78.2452C426.909 78.4496 430.26 78.5916 433.588 78.4212C436.348 78.2793 439.114 75.9852 439.329 73.6514C439.96 66.8601 439.602 60.1255 437.274 53.6295C437.069 53.0616 436.246 52.2723 435.763 52.3064C430.481 52.6585 425.217 53.1525 419.907 53.6068Z" fill="white"/>
<path d="M458.19 164.891C448.422 166.016 438.824 164.863 429.317 162.717C421.65 160.985 415.057 157.402 410.263 150.951C408.412 148.453 407.549 145.704 407.572 142.558C407.679 128.629 413.722 120.339 429.743 115.183C438.472 112.372 447.513 111.475 456.685 112.043C468.435 112.775 480.117 114.025 491.476 117.233C497.24 118.863 502.272 121.685 504.515 127.829C507.729 136.625 505.276 145.523 498.052 151.439C490.868 157.328 483.201 162.359 473.83 163.761C468.685 164.539 463.409 164.539 458.19 164.891ZM439.642 138.05C439.585 141.951 440.278 142.854 444.037 143.688C444.872 143.876 445.718 144.023 446.57 144.092C454.771 144.733 462.977 145.341 471.184 145.983C476.454 146.397 480.566 143.018 481.327 137.596C482.054 132.417 479.879 129.123 473.933 128.641C465.931 127.988 457.815 127.744 449.825 128.34C442.385 128.885 439.733 132.088 439.642 138.05Z" fill="white"/>
<path d="M479.424 42.818C479.441 39.9277 478.947 33.2159 481.617 31.8871C483.536 30.9332 496.541 31.6657 500.38 32.3244C502.993 32.773 504.293 34.4026 504.373 37.185C504.498 41.5574 504.793 45.9297 505.145 50.2907C505.441 54.0044 506.02 54.487 509.689 54.7823C512.767 55.0322 515.851 55.2479 518.923 55.5716C521.819 55.8782 523.546 57.2297 523.512 60.1143C523.478 63.6462 522.819 67.1895 522.177 70.6874C521.757 72.9815 519.974 74.1569 517.725 74.2989C514.221 74.5146 510.705 74.6395 507.195 74.6112C505.401 74.5941 504.861 75.1676 504.833 76.962C504.742 83.5659 504.543 90.1699 504.248 96.7681C504.095 100.204 502.862 101.356 499.421 101.39C495.133 101.43 490.834 101.373 486.546 101.214C481.963 101.038 478.743 97.654 478.72 93.0261C478.68 84.6959 479.385 51.2276 479.424 42.818Z" fill="white"/>
<path d="M276.905 192.653L286.196 215.412H286.56L295.851 192.653H301.286V222.021H297.027V200.807H296.743L288.139 221.982H284.606L275.963 200.767H275.718V222.027H271.47V192.659H276.905V192.653Z" fill="white"/>
<path d="M310.202 192.653H328.62V196.509H314.66V205.395H327.643V209.211H314.66V218.177H328.779V222.033H310.202V192.653Z" fill="white"/>
<path d="M349.298 222.43C341.631 222.43 336.031 216.712 336.031 207.337C336.031 197.928 341.631 192.244 349.298 192.244C356.885 192.244 362.524 197.923 362.524 207.337C362.524 216.712 356.885 222.43 349.298 222.43ZM349.298 196.35C344.226 196.35 340.455 200.205 340.455 207.343C340.455 214.481 344.226 218.336 349.298 218.336C354.329 218.336 358.1 214.481 358.1 207.343C358.1 200.205 354.329 196.35 349.298 196.35Z" fill="white"/>
<path d="M394.157 222.027H390.057L375.166 200.569H374.922V222.027H370.458V192.659H374.598L389.489 214.157H389.773V192.659H394.157V222.027Z" fill="white"/>
<path d="M408.509 192.653L417.8 215.412H418.163L427.454 192.653H432.889V222.021H428.63V200.807H428.346L419.742 221.982H416.21L407.566 200.767H407.322V222.027H403.062V192.659H408.509V192.653Z" fill="white"/>
<path d="M439.568 222.027L450.12 192.659H455.271L465.862 222.027H461.115L458.44 214.276H446.996L444.316 222.027H439.568ZM457.139 210.546L452.8 198.008H452.596L448.297 210.546H457.139Z" fill="white"/>
<path d="M496.195 222.027H492.095L477.204 200.569H476.96V222.027H472.496V192.659H476.636L491.527 214.157H491.811V192.659H496.195V222.027Z" fill="white"/>
<path d="M517.321 196.35C512.369 196.35 508.558 200.245 508.558 207.343C508.558 214.441 512.329 218.336 517.526 218.336C522.211 218.336 525.318 215.372 525.397 210.67H518.173V206.98H529.736V210.307C529.736 217.729 524.625 222.436 517.48 222.436C509.53 222.436 504.134 216.633 504.134 207.343C504.134 197.974 509.694 192.25 517.282 192.25C523.654 192.25 528.521 196.225 529.537 201.943H524.954C523.852 198.456 521.212 196.35 517.321 196.35Z" fill="white"/>
<path d="M553.657 192.653V213.464C553.657 219.143 550.085 222.43 544.689 222.43C539.697 222.43 535.966 219.631 535.966 214.64H540.39C540.43 217.115 542.259 218.614 544.814 218.614C547.614 218.614 549.193 216.831 549.193 213.464V192.653H553.657Z" fill="white"/>
<path d="M566.991 222.027H562.528V192.659H566.991V222.027Z" fill="white"/>
<path d="M599.556 222.027H595.455L580.565 200.569H580.32V222.027H575.857V192.659H579.997L594.887 214.157H595.171V192.659H599.556V222.027Z" fill="white"/>
<path d="M620.762 196.35C615.69 196.35 611.919 200.245 611.919 207.343C611.919 214.481 615.736 218.336 620.762 218.336C624.453 218.336 627.577 216.269 628.349 212.533L632.853 212.573C631.921 218.376 627.174 222.43 620.722 222.43C613.055 222.43 607.495 216.712 607.495 207.337C607.495 197.928 613.095 192.244 620.722 192.244C626.929 192.244 631.842 195.895 632.853 202.221H628.349C627.617 198.456 624.493 196.35 620.762 196.35Z" fill="white"/>
<path d="M640.588 192.653H645.052V205.39H659.658V192.653H664.122V222.021H659.658V209.2H645.052V222.021H640.588V192.653Z" fill="white"/>
<path d="M670.801 222.027L681.353 192.659H686.504L697.095 222.027H692.348L689.673 214.276H678.229L675.549 222.027H670.801ZM688.367 210.546L684.028 198.008H683.823L679.524 210.546H688.367Z" fill="white"/>
<path d="M727.422 222.027H723.322L708.431 200.569H708.187V222.027H703.723V192.659H707.863L722.754 214.157H723.038V192.659H727.422V222.027Z" fill="white"/>
<path d="M748.549 196.35C743.596 196.35 739.786 200.245 739.786 207.343C739.786 214.441 743.557 218.336 748.753 218.336C753.438 218.336 756.545 215.372 756.624 210.67H749.401V206.98H760.963V210.307C760.963 217.729 755.852 222.436 748.708 222.436C740.757 222.436 735.362 216.633 735.362 207.343C735.362 197.974 740.922 192.25 748.509 192.25C754.881 192.25 759.748 196.225 760.765 201.943H756.181C755.08 198.456 752.445 196.35 748.549 196.35Z" fill="white"/>
<path d="M145.433 233.037C139.22 233.037 132.927 231.766 126.924 229.068C120.978 226.399 115.685 222.487 111.397 217.615C106.013 222.226 99.6187 225.519 92.6561 227.229C68.4969 233.168 43.8153 218.404 37.6363 194.328C36.0178 188.014 35.7792 181.438 36.9094 175.056C29.9467 173.721 23.3873 170.78 17.7081 166.402C-1.9929 151.218 -5.84338 122.724 9.12691 102.878C13.0569 97.6766 18.0489 93.3838 23.7508 90.289C20.4512 84.0145 18.6622 77.0471 18.543 69.8867C18.1284 45.0154 38.0111 24.2383 62.8632 23.5739C69.3829 23.4036 75.8514 24.6244 81.8259 27.157C84.6769 20.6666 89.0044 14.9258 94.5359 10.366C113.726 -5.45957 142.366 -2.87592 158.387 16.1409C162.589 21.1265 165.656 26.9525 167.405 33.1931C174.254 31.376 181.444 31.1829 188.458 32.6593C212.799 37.7925 228.632 61.795 223.754 86.1665C222.476 92.5604 219.835 98.5908 216.042 103.855C221.738 108.074 226.372 113.576 229.586 119.981C240.752 142.212 231.852 169.553 209.755 180.938C203.956 183.925 197.596 185.617 191.116 185.935C191.366 193.022 189.952 200.069 186.947 206.576C179.292 223.186 162.703 233.037 145.433 233.037ZM112.34 204.316L115.407 208.694C119.218 214.129 124.431 218.438 130.485 221.153C148.846 229.398 170.642 221.227 179.082 202.936C182.08 196.435 183.125 189.263 182.086 182.193L181.314 176.901L186.652 177.23C193.28 177.634 199.89 176.254 205.791 173.216C223.68 164 230.881 141.866 221.846 123.871C218.631 117.466 213.668 112.185 207.5 108.585L202.883 105.893L206.467 101.93C210.919 97.0065 213.957 90.9648 215.264 84.4574C219.211 64.7307 206.393 45.2993 186.686 41.1428C179.678 39.6607 172.448 40.2456 165.792 42.8293L160.806 44.7656L159.943 39.4904C158.869 32.9432 156.041 26.7992 151.765 21.7284C138.799 6.34007 115.611 4.24475 100.079 17.0608C94.5529 21.6206 90.5037 27.6339 88.3683 34.448L86.7725 39.5472L82.1099 36.9351C76.3228 33.6928 69.7804 32.0858 63.1187 32.2505C43.0031 32.7899 26.9084 49.6092 27.2434 69.7447C27.3627 76.9051 29.5378 83.8214 33.536 89.7382L36.5289 94.1674L31.5767 96.1889C25.4318 98.693 20.0707 102.816 16.0725 108.113C3.95319 124.178 7.07105 147.243 23.0238 159.537C28.703 163.909 35.4612 166.521 42.5772 167.083L47.9099 167.503L46.3993 172.631C44.5252 178.996 44.4059 185.754 46.0585 192.182C51.0619 211.675 71.0412 223.623 90.6002 218.813C97.5572 217.104 103.816 213.447 108.694 208.229L112.34 204.316Z" fill="white"/>
<path d="M85.7559 102.742C88.1522 102.742 90.0948 100.799 90.0948 98.4035C90.0948 96.0075 88.1522 94.0652 85.7559 94.0652C83.3596 94.0652 81.417 96.0075 81.417 98.4035C81.417 100.799 83.3596 102.742 85.7559 102.742Z" fill="white"/>
<path d="M148.681 102.742C151.077 102.742 153.02 100.799 153.02 98.4035C153.02 96.0075 151.077 94.0652 148.681 94.0652C146.285 94.0652 144.342 96.0075 144.342 98.4035C144.342 100.799 146.285 102.742 148.681 102.742Z" fill="white"/>
<path d="M117.218 135.284C89.4133 135.284 82.0644 119.936 81.7634 119.283C81.0138 117.647 81.735 115.717 83.365 114.967C84.9949 114.235 86.9088 114.933 87.6641 116.546C87.9424 117.108 93.9282 128.777 117.213 128.777C140.213 128.777 144.382 117.403 144.547 116.921C145.126 115.234 146.949 114.309 148.647 114.859C150.339 115.41 151.276 117.199 150.748 118.897C150.549 119.567 145.33 135.284 117.218 135.284Z" fill="white"/>
</svg>
