<svg width="106" height="116" viewBox="0 0 106 116" fill="none" xmlns="http://www.w3.org/2000/svg">
<path d="M103.03 65.84C101.32 62.43 98.7101 59.76 95.6401 57.97C97.8601 55.52 99.4701 52.46 100.17 48.97C102.19 38.87 95.5301 28.78 85.4501 26.65C81.72 25.86 78 26.23 74.69 27.52C74.16 24.26 72.7701 21.09 70.48 18.37C63.84 10.49 51.8 9.41 43.86 15.96C40.92 18.39 38.89 21.52 37.83 24.92C34.95 23.31 31.61 22.41 28.05 22.51C17.75 22.79 9.40005 31.52 9.57005 41.83C9.63005 45.64 10.82 49.18 12.81 52.13C9.75004 53.38 6.97005 55.43 4.82005 58.27C-1.38995 66.49 0.240032 78.47 8.40003 84.76C11.42 87.09 14.93 88.37 18.48 88.65C17.55 91.82 17.42 95.27 18.3 98.72C20.86 108.7 31.24 114.9 41.24 112.44C44.94 111.53 48.13 109.59 50.56 106.99C52.46 109.7 55.08 111.95 58.33 113.41C67.73 117.63 79.05 113.38 83.36 104.03C84.96 100.57 85.42 96.86 84.91 93.34C88.21 93.54 91.6 92.9 94.77 91.27C103.91 86.55 107.65 75.05 103.03 65.84Z" fill="#DE4F4F"/>
<path d="M55.38 52.57L66.01 49.03C66.01 49.03 66.6 54.94 61.87 56.12C57.14 57.3 55.38 52.57 55.38 52.57Z" fill="white"/>
<path d="M50.66 52.57L40.03 49.03C40.03 49.03 39.44 54.94 44.17 56.12C48.9 57.3 50.66 52.57 50.66 52.57Z" fill="white"/>
<path d="M52.75 79C36.75 79 36.75 67.86 36.75 62.5C36.75 61.67 37.42 61 38.25 61H67.25C68.08 61 68.75 61.67 68.75 62.5C68.75 67.86 68.75 79 52.75 79ZM39.77 64C39.96 70.27 41.63 76 52.75 76C63.87 76 65.54 70.27 65.73 64H39.77Z" fill="white"/>
<path d="M46.75 78.3C45.92 78.3 45.25 77.63 45.25 76.8V62.5C45.25 61.67 45.92 61 46.75 61C47.58 61 48.25 61.67 48.25 62.5V76.8C48.25 77.63 47.58 78.3 46.75 78.3Z" fill="white"/>
<path d="M58.75 78.3C57.92 78.3 57.25 77.63 57.25 76.8V62.5C57.25 61.67 57.92 61 58.75 61C59.58 61 60.25 61.67 60.25 62.5V76.8C60.25 77.63 59.58 78.3 58.75 78.3Z" fill="white"/>
<path d="M52.75 79C51.92 79 51.25 78.33 51.25 77.5V62.5C51.25 61.67 51.92 61 52.75 61C53.58 61 54.25 61.67 54.25 62.5V77.5C54.25 78.33 53.58 79 52.75 79Z" fill="white"/>
<path d="M22.52 12C23.6246 12 24.52 11.1046 24.52 10C24.52 8.89543 23.6246 8 22.52 8C21.4154 8 20.52 8.89543 20.52 10C20.52 11.1046 21.4154 12 22.52 12Z" fill="#DE4F4F"/>
<path d="M79.02 7C80.953 7 82.52 5.433 82.52 3.5C82.52 1.567 80.953 0 79.02 0C77.087 0 75.52 1.567 75.52 3.5C75.52 5.433 77.087 7 79.02 7Z" fill="#DE4F4F"/>
<path d="M78.02 23C79.4007 23 80.52 21.8807 80.52 20.5C80.52 19.1193 79.4007 18 78.02 18C76.6393 18 75.52 19.1193 75.52 20.5C75.52 21.8807 76.6393 23 78.02 23Z" fill="#DE4F4F"/>
<path d="M3.37 47.23C4.75071 47.23 5.87 46.1107 5.87 44.73C5.87 43.3493 4.75071 42.23 3.37 42.23C1.98928 42.23 0.869995 43.3493 0.869995 44.73C0.869995 46.1107 1.98928 47.23 3.37 47.23Z" fill="#DE4F4F"/>
<path d="M96 20.5C97.3807 20.5 98.5 19.3807 98.5 18C98.5 16.6193 97.3807 15.5 96 15.5C94.6193 15.5 93.5 16.6193 93.5 18C93.5 19.3807 94.6193 20.5 96 20.5Z" fill="#DE4F4F"/>
<path d="M96 105.39C97.3807 105.39 98.5 104.271 98.5 102.89C98.5 101.509 97.3807 100.39 96 100.39C94.6193 100.39 93.5 101.509 93.5 102.89C93.5 104.271 94.6193 105.39 96 105.39Z" fill="#DE4F4F"/>
</svg>
